<svg xmlns="http://www.w3.org/2000/svg" xmlns:xlink="http://www.w3.org/1999/xlink" viewBox="0 0 117.78 62.96"><defs><clipPath id="a" transform="translate(0 0)"><rect width="117.78" height="62.96" style="fill:none"/></clipPath></defs><title>logo-big</title><g style="clip-path:url(#a)"><path d="M82.79,22.36c-.95-5.27-3.52-9.55-6.54-11.48q-.7-.53-1.48-1a6.65,6.65,0,0,0-4.08-1,108.33,108.33,0,0,1-11.8.57,108.32,108.32,0,0,1-11.8-.57,6.65,6.65,0,0,0-4.08,1q-.78.49-1.48,1c-3,1.93-5.6,6.21-6.54,11.48-1.39,7.75,1.27,14.72,5.94,15.56,3.15.56,6.41-1.8,8.62-5.77l.15-.28,1.74-2.1C52.81,28.72,54.67,28,58.89,28s6.08.68,7.44,1.73l1.74,2.1.15.28c2.22,4,5.47,6.33,8.62,5.77,4.67-.84,7.33-7.8,5.94-15.56" transform="translate(0 0)" style="fill:#404040"/><path d="M69.53,35.08a7,7,0,1,1,7-7,7,7,0,0,1-7,7" transform="translate(0 0)" style="fill:#fff"/><path d="M69.53,22.16a6,6,0,1,1-6,6,6,6,0,0,1,6-6m0-2a8,8,0,1,0,8,8,8,8,0,0,0-8-8" transform="translate(0 0)" style="fill:#404040"/><path d="M65.4,28.12A4.12,4.12,0,1,0,69.53,24a4.13,4.13,0,0,0-4.12,4.12" transform="translate(0 0)" style="fill:#d93956"/><path d="M48.25,35.08a7,7,0,1,1,7-7,7,7,0,0,1-7,7" transform="translate(0 0)" style="fill:#fff"/><path d="M48.25,22.16a6,6,0,1,1-6,6,6,6,0,0,1,6-6m0-2a8,8,0,1,0,8,8,8,8,0,0,0-8-8" transform="translate(0 0)" style="fill:#404040"/><path d="M44.13,28.12A4.12,4.12,0,1,0,48.25,24a4.13,4.13,0,0,0-4.12,4.12" transform="translate(0 0)" style="fill:#d93956"/><path d="M58.89,25.4a5.26,5.26,0,1,1,5.25-5.25,5.26,5.26,0,0,1-5.25,5.25" transform="translate(0 0)" style="fill:#fff"/><path d="M58.89,15.88a4.26,4.26,0,1,1-4.26,4.26,4.25,4.25,0,0,1,4.26-4.26m0-2a6.26,6.26,0,1,0,6.25,6.26,6.26,6.26,0,0,0-6.25-6.26" transform="translate(0 0)" style="fill:#404040"/><path d="M61.63,20.14a2.74,2.74,0,1,1-2.74-2.73,2.74,2.74,0,0,1,2.74,2.73" transform="translate(0 0)" style="fill:#d93956"/><path d="M69.6,19.68a1,1,0,0,1-.88-1.47l3.08-5.83-2.11-.61A1,1,0,0,1,69,10.46l3.3-8.81A1,1,0,0,1,73.26,1h.17l4.4.75a1,1,0,0,1,.64,1.58l-3.69,5L77,9.45A1,1,0,0,1,77.33,11l-7,8.34a1,1,0,0,1-.77.36" transform="translate(0 0)" style="fill:#d93956"/><path d="M73.26,2l4.4.75-4.4,5.94,3.31,1.65-7,8.34,3.65-6.92-3.3-1L73.26,2m0-2a2,2,0,0,0-1.87,1.3l-3.3,8.81a2,2,0,0,0,1.32,2.62l.93.27-2.5,4.74A2,2,0,0,0,71.14,20l7-8.34a2,2,0,0,0-.64-3.07L76.28,8l3-4A2,2,0,0,0,78,.78L73.59,0l-.34,0" transform="translate(0 0)" style="fill:#404040"/><path d="M0,49.43H3.12V51a2.89,2.89,0,0,1,.31-.77,1.92,1.92,0,0,1,.41-.5,1.77,1.77,0,0,1,.5-.29,2.17,2.17,0,0,1,.51-.13l.51,0a2.82,2.82,0,0,1,.8.12,2.25,2.25,0,0,1,.78.44,1.94,1.94,0,0,1,.58.82,2.67,2.67,0,0,1,.95-1.07,2.59,2.59,0,0,1,1.32-.31,3.45,3.45,0,0,1,1.07.15,1.94,1.94,0,0,1,.77.44,3,3,0,0,1,.5.63,2.65,2.65,0,0,1,.29.8,7.49,7.49,0,0,1,.13.86q0,.4,0,.89l0,9.76H9.34V53q0-1.29-.65-1.29a.64.64,0,0,0-.43.16,1,1,0,0,0-.27.4,2.56,2.56,0,0,0-.12.49,3.11,3.11,0,0,0,0,.47V62.8H4.63V53c0-.05,0-.13,0-.23a1.81,1.81,0,0,0,0-.25l0-.23a.74.74,0,0,0-.07-.22l-.11-.16a.36.36,0,0,0-.16-.12.53.53,0,0,0-.21,0,.65.65,0,0,0-.44.16,1,1,0,0,0-.27.43,2.89,2.89,0,0,0-.13.53,3.51,3.51,0,0,0,0,.52V62.8H0Z" transform="translate(0 0)" style="fill:#404040"/><path d="M17.82,63q-4,0-4-4.16V53.44a4.22,4.22,0,0,1,1.07-3,3.85,3.85,0,0,1,2.92-1.12,3.85,3.85,0,0,1,2.93,1.12,4.22,4.22,0,0,1,1.07,3V58.8a4.29,4.29,0,0,1-1,3.13,4,4,0,0,1-3,1m-.75-10v6.53a1.19,1.19,0,0,0,.21.78.71.71,0,0,0,1.08,0,1.19,1.19,0,0,0,.21-.78V52.93q0-1.17-.75-1.17t-.75,1.17" transform="translate(0 0)" style="fill:#404040"/><path d="M23.1,62.8V49.43h3.19V51A2.14,2.14,0,0,1,27,49.69a2,2,0,0,1,1.29-.41,2.46,2.46,0,0,1,2,.79,3.6,3.6,0,0,1,.69,2.43V62.8H27.8v-10a1.57,1.57,0,0,0-.17-.74.57.57,0,0,0-.54-.32.61.61,0,0,0-.39.13.82.82,0,0,0-.24.29,1.71,1.71,0,0,0-.12.43,3.52,3.52,0,0,0-.05.41c0,.09,0,.22,0,.37v9.4Z" transform="translate(0 0)" style="fill:#404040"/><path d="M36.64,53.42l0-.51a2.36,2.36,0,0,0,0-.36,1.88,1.88,0,0,0-.1-.37.7.7,0,0,0-.21-.31.53.53,0,0,0-.34-.12.65.65,0,0,0-.5.19.75.75,0,0,0-.17.53,1.33,1.33,0,0,0,.57,1.13l2,1.44a6.6,6.6,0,0,1,1,.92,5,5,0,0,1,.65.88,4.05,4.05,0,0,1,.35.85,4.38,4.38,0,0,1,.15.74q0,.29,0,.64A3.72,3.72,0,0,1,38.92,62,4.2,4.2,0,0,1,36,63q-4,0-4-4l0-1.06h3.19l0,1.57a1.56,1.56,0,0,0,.08.53.58.58,0,0,0,.21.3.79.79,0,0,0,.24.12,1.09,1.09,0,0,0,.25,0q.64,0,.64-1c0-.18,0-.31,0-.39a2.32,2.32,0,0,0-.07-.36,1.19,1.19,0,0,0-.19-.41,4.63,4.63,0,0,0-.37-.44,5.3,5.3,0,0,0-.62-.54l-1.7-1.31a6,6,0,0,1-.9-.83,2.69,2.69,0,0,1-.5-.86,4,4,0,0,1-.2-.81,8.06,8.06,0,0,1,0-.93,2.78,2.78,0,0,1,.59-1.77,3.47,3.47,0,0,1,1.47-1.1,5.15,5.15,0,0,1,1.9-.35,4,4,0,0,1,2.88,1,3.88,3.88,0,0,1,1,2.94v.25Z" transform="translate(0 0)" style="fill:#404040"/><path d="M41.24,47.12h3.1V50h.57v2.43h-.57v7.52c0,.11,0,.2,0,.27a1.46,1.46,0,0,0,0,.21.25.25,0,0,0,.1.16.34.34,0,0,0,.19,0,.77.77,0,0,0,.23,0v2.17a5.3,5.3,0,0,1-1.7.23,2.54,2.54,0,0,1-.89-.14,1.6,1.6,0,0,1-.57-.34,1.4,1.4,0,0,1-.33-.52,2.44,2.44,0,0,1-.15-.59,5.65,5.65,0,0,1,0-.63V52.39h-.49V50h.49Z" transform="translate(0 0)" style="fill:#404040"/><path d="M49.75,63a5.36,5.36,0,0,1-1.29-.15,3.78,3.78,0,0,1-1-.38,2.56,2.56,0,0,1-.69-.6,3.5,3.5,0,0,1-.46-.74,4.21,4.21,0,0,1-.27-.85,6.82,6.82,0,0,1-.13-.89c0-.27,0-.57,0-.91V53.07A3.65,3.65,0,0,1,47,50.26a4.19,4.19,0,0,1,3-1q3.85,0,3.85,3.79v1q0,1.81,0,2.49H49.09V58.4c0,.06,0,.16,0,.29s0,.24,0,.31a4.76,4.76,0,0,0,0,.55,2.74,2.74,0,0,0,.1.46.65.65,0,0,0,.24.36.67.67,0,0,0,.41.12.53.53,0,0,0,.42-.18,1.1,1.1,0,0,0,.23-.53,4.91,4.91,0,0,0,.08-.61c0-.18,0-.4,0-.67,0-.52,0-.81,0-.86h3.17v.76a9.13,9.13,0,0,1-.17,1.9,3.93,3.93,0,0,1-.6,1.41,2.59,2.59,0,0,1-1.23.94,5.6,5.6,0,0,1-2,.31m.13-11.29a.67.67,0,0,0-.42.13.74.74,0,0,0-.25.39,2.64,2.64,0,0,0-.11.53c0,.18,0,.4,0,.66s0,.31,0,.56,0,.44,0,.56h1.5V53.12c0-1-.24-1.44-.71-1.44" transform="translate(0 0)" style="fill:#404040"/><path d="M55,62.8V49.44h3.19v1.49a2.41,2.41,0,0,1,.75-1.28,2,2,0,0,1,1.22-.36,2.41,2.41,0,0,1,1.57.55,1.92,1.92,0,0,1,.68,1.59v4.47H59.29v-3.2a3.09,3.09,0,0,0,0-.4.64.64,0,0,0-.14-.32.41.41,0,0,0-.34-.15.53.53,0,0,0-.41.2.83.83,0,0,0-.18.56V62.8Z" transform="translate(0 0)" style="fill:#404040"/><path d="M63.63,62.8V52.46H63q0-.42,0-2.43h.54v-.91A1.91,1.91,0,0,1,65.78,47a4.29,4.29,0,0,1,1.64.26v2a1.37,1.37,0,0,0-.29,0,.32.32,0,0,0-.33.17,1.42,1.42,0,0,0-.08.54V50h.69V52.5h-.63V62.8Z" transform="translate(0 0)" style="fill:#404040"/><path d="M68.54,47h3.19v1.57H68.54Zm0,2.39h3.19V62.8H68.54Z" transform="translate(0 0)" style="fill:#404040"/><path d="M73,58.42V54.3a6.21,6.21,0,0,1,.94-3.87,3.82,3.82,0,0,1,3.14-1.16,4.19,4.19,0,0,1,2.8.91A3.09,3.09,0,0,1,81,52.69V55H77.7V52.86a1.81,1.81,0,0,0-.15-.8.57.57,0,0,0-.57-.3q-.78,0-.78,1.11v6.48a1.61,1.61,0,0,0,.18.75.61.61,0,0,0,.59.34.59.59,0,0,0,.23,0,.94.94,0,0,0,.24-.15.71.71,0,0,0,.21-.34,1.91,1.91,0,0,0,.08-.57l0-2H81v2.09A3.29,3.29,0,0,1,79.89,62a4,4,0,0,1-2.77.94,6.1,6.1,0,0,1-1.42-.15,4,4,0,0,1-1.06-.4,2.71,2.71,0,0,1-.73-.62,3.38,3.38,0,0,1-.49-.75,3.93,3.93,0,0,1-.28-.86,6.5,6.5,0,0,1-.13-.88q0-.4,0-.89" transform="translate(0 0)" style="fill:#404040"/><path d="M81.78,59a5.35,5.35,0,0,1,.53-2.66A3.47,3.47,0,0,1,83.88,55q.57-.27,2.55-.94v0c0-.19,0-.34,0-.46s0-.25,0-.4,0-.27,0-.36,0-.19,0-.29a1.77,1.77,0,0,0,0-.24,1.72,1.72,0,0,0-.06-.19.51.51,0,0,0-.09-.16l-.11-.1a.35.35,0,0,0-.15-.06l-.18,0q-.66,0-.66.73v.9H82c0-.1,0-.25,0-.44a3.77,3.77,0,0,1,.9-2.79,4.24,4.24,0,0,1,3-.89,4.65,4.65,0,0,1,1.33.19,4.29,4.29,0,0,1,1.19.57,2.7,2.7,0,0,1,.89,1,3.37,3.37,0,0,1,.33,1.53V62.8H86.48V61.41a2.13,2.13,0,0,1-.74,1.07,1.91,1.91,0,0,1-1.25.48,3.81,3.81,0,0,1-.85-.09,2.08,2.08,0,0,1-.73-.34,2,2,0,0,1-.6-.69,4.16,4.16,0,0,1-.38-1.16A8.67,8.67,0,0,1,81.78,59M85,57.73v1.56q0,1.19.71,1.18a.55.55,0,0,0,.34-.11.66.66,0,0,0,.21-.28,1.53,1.53,0,0,0,.1-.33,2,2,0,0,0,0-.33V55.91a2.29,2.29,0,0,0-1.11.77,1.89,1.89,0,0,0-.28,1" transform="translate(0 0)" style="fill:#404040"/><path d="M91.26,47.12h3.1V50h.57v2.43h-.57v7.52c0,.11,0,.2,0,.27a1.46,1.46,0,0,0,0,.21.25.25,0,0,0,.1.16.34.34,0,0,0,.19,0,.77.77,0,0,0,.23,0v2.17a5.3,5.3,0,0,1-1.7.23,2.54,2.54,0,0,1-.89-.14,1.61,1.61,0,0,1-.57-.34,1.4,1.4,0,0,1-.32-.52,2.44,2.44,0,0,1-.15-.59,5.65,5.65,0,0,1,0-.63V52.39h-.49V50h.49Z" transform="translate(0 0)" style="fill:#404040"/><path d="M96.18,47h3.19v1.57H96.18Zm0,2.39h3.19V62.8H96.18Z" transform="translate(0 0)" style="fill:#404040"/><path d="M104.65,63q-4,0-4-4.16V53.44a4.22,4.22,0,0,1,1.07-3,4.38,4.38,0,0,1,5.85,0,4.22,4.22,0,0,1,1.07,3V58.8a4.29,4.29,0,0,1-1,3.13,4,4,0,0,1-3,1m-.75-10v6.53a1.19,1.19,0,0,0,.21.78.71.71,0,0,0,1.08,0,1.19,1.19,0,0,0,.21-.78V52.93q0-1.17-.75-1.17t-.75,1.17" transform="translate(0 0)" style="fill:#404040"/><path d="M109.93,62.8V49.43h3.19V51a2.14,2.14,0,0,1,.73-1.27,2,2,0,0,1,1.29-.41,2.46,2.46,0,0,1,2,.79,3.6,3.6,0,0,1,.69,2.43V62.8h-3.14v-10a1.55,1.55,0,0,0-.17-.74.57.57,0,0,0-.54-.32.61.61,0,0,0-.39.13.8.8,0,0,0-.24.29,1.71,1.71,0,0,0-.12.43,3.1,3.1,0,0,0,0,.41c0,.09,0,.22,0,.37v9.4Z" transform="translate(0 0)" style="fill:#404040"/></g></svg>