<svg xmlns="http://www.w3.org/2000/svg" viewBox="0 0 100 100"><title>atomic_commiter</title><circle cx="50" cy="50" r="50" style="fill:#694d87"/><path d="M43.1,69.72A60.86,60.86,0,0,0,50,66.47v-4.6c-2-1.16-3.91-2.43-5.84-3.83q-2-1.49-3.91-3c-.12-1.67-.19-3.34-.19-5s.07-3.32.19-5q1.88-1.56,3.91-3c1.93-1.4,3.89-2.67,5.84-3.83v-4.6a60.86,60.86,0,0,0-6.9-3.25c1.76-5.07,4.16-8.53,6.9-8.53v-4C45.59,17.75,41.78,22,39.26,29l-1.1-.32c-6.8-1.75-11.86-.9-14.25,2.39s-1.63,8.36,2.14,14.28A43.25,43.25,0,0,0,29.52,50a43.25,43.25,0,0,0-3.47,4.67c-3.77,5.92-4.53,11-2.14,14.28,1.58,2.17,4.31,3.28,7.94,3.28a25.42,25.42,0,0,0,6.31-.89l1.1-.32C41.78,78,45.59,82.25,50,82.25v-4C47.26,78.25,44.86,74.79,43.1,69.72ZM42,34.13c1.31.53,2.64,1.12,4,1.79q-2.09,1.32-4.14,2.8l-.91.69C41.19,37.58,41.54,35.81,42,34.13Zm-4.8,33.33c-4.95,1.28-8.69,1-10-.86s-.47-5.47,2.27-9.79A39.25,39.25,0,0,1,32.21,53q1.93,2,4.15,3.93A61.51,61.51,0,0,0,38.08,67.2C37.77,67.28,37.46,67.39,37.16,67.46ZM36.07,51.21c-.4-.4-.8-.81-1.18-1.21.38-.4.78-.81,1.18-1.21,0,.4,0,.8,0,1.21S36.07,50.81,36.07,51.21Zm.29-8.13Q34.14,45,32.21,47a39.25,39.25,0,0,1-2.79-3.82c-2.74-4.32-3.59-8-2.27-9.79.78-1.08,2.43-1.64,4.68-1.64a21.69,21.69,0,0,1,5.33.78c.3.07.61.18.92.26A61.51,61.51,0,0,0,36.36,43.08ZM40.9,60.59l.91.69q2.05,1.48,4.14,2.8c-1.35.67-2.68,1.26-4,1.79C41.54,64.19,41.19,62.42,40.9,60.59Z" style="fill:#fff800"/><path d="M70.48,50A43.25,43.25,0,0,0,74,45.33c3.77-5.92,4.53-11,2.14-14.28s-7.45-4.14-14.25-2.39l-1.1.32C58.22,22,54.41,17.75,50,17.75v4c2.74,0,5.14,3.46,6.9,8.53A60.86,60.86,0,0,0,50,33.53v4.6c2,1.16,3.91,2.43,5.84,3.83q2,1.49,3.91,3c.12,1.67.19,3.34.19,5s-.07,3.32-.19,5q-1.87,1.56-3.91,3C53.91,59.44,52,60.71,50,61.87v4.6a60.86,60.86,0,0,0,6.9,3.25c-1.76,5.07-4.16,8.53-6.9,8.53v4c4.41,0,8.22-4.28,10.74-11.23l1.1.32a25.42,25.42,0,0,0,6.31.89c3.63,0,6.36-1.11,7.94-3.28,2.39-3.29,1.63-8.36-2.14-14.28A43.25,43.25,0,0,0,70.48,50ZM58.19,38.72q-2.05-1.48-4.14-2.8c1.35-.67,2.68-1.26,4-1.79.42,1.68.77,3.45,1.06,5.28ZM58,65.87c-1.31-.53-2.64-1.12-4-1.79q2.09-1.32,4.14-2.8l.91-.69C58.81,62.42,58.46,64.19,58,65.87Zm4.8-33.33a21.69,21.69,0,0,1,5.33-.78c2.25,0,3.9.56,4.68,1.64,1.32,1.81.47,5.47-2.27,9.79A39.25,39.25,0,0,1,67.79,47q-1.94-2-4.15-3.93A61.51,61.51,0,0,0,61.92,32.8C62.23,32.72,62.54,32.61,62.84,32.54Zm1.09,16.25c.4.4.8.81,1.18,1.21-.38.4-.78.81-1.18,1.21,0-.4,0-.8,0-1.21S63.93,49.19,63.93,48.79ZM72.85,66.6c-1.32,1.82-5.06,2.14-10,.86-.3-.07-.61-.18-.92-.26a61.51,61.51,0,0,0,1.72-10.28Q65.86,55,67.79,53a39.25,39.25,0,0,1,2.79,3.82C73.32,61.13,74.17,64.79,72.85,66.6Z" style="fill:#e5d400"/><path d="M47,50a3,3,0,0,0,3,3V47A3,3,0,0,0,47,50Z" style="fill:#fff800"/><path d="M53,50a3,3,0,0,0-3-3v6A3,3,0,0,0,53,50Z" style="fill:#e5d400"/></svg>