<svg xmlns="http://www.w3.org/2000/svg" viewBox="0 0 100 100"><title>baby_step</title><circle cx="50" cy="50" r="50" style="fill:#694d87"/><path d="M37.1,36.72a3,3,0,0,0-.66-.08,3.27,3.27,0,0,0-2.16.94c-1.12,1-1,1.59-.9,1.79.53,2,6,4,10.11,5C42.21,41.62,39.72,37.37,37.1,36.72Z" style="fill:none"/><path d="M45.89,40.48c-.06.48-.13,1-.22,1.39.23-.39.47-.8.73-1.21A3.45,3.45,0,0,1,45.89,40.48Z" style="fill:#fff312"/><path d="M51.07,40.93v1.74a19.8,19.8,0,0,0,3.49-1.74Z" style="fill:#ffc44d"/><path d="M48.2,40.93a22.33,22.33,0,0,0-1.91,3.35,46.92,46.92,0,0,0,4.78-1.61V40.93Z" style="fill:#fff312"/><path d="M50.54,55.81a2.63,2.63,0,0,1-.56-5.2,4.29,4.29,0,0,0-.75-1.91,6.51,6.51,0,0,0-3.81-2.28L44,46.22c-1.22-.08-3.65,0-5.26,1.33a4.51,4.51,0,0,0-1.32,2,2.61,2.61,0,0,1,1.33,2.27,2.64,2.64,0,1,1-3-2.6,6.09,6.09,0,0,1,1.91-2.94A6.75,6.75,0,0,1,40,45.05c-.42-.13-.85-.27-1.27-.43-9.54.87-11.95,5.33-11.95,11.22,0,7.39,9.76,13.39,21.8,13.39.88,0,1.72,0,2.54,0V55.75A2.33,2.33,0,0,1,50.54,55.81Z" style="fill:#fff312"/><path d="M70.93,40.13a5.11,5.11,0,0,1-2.74.8H56.92c-1.05,1.4-3.45,2.6-5.85,3.51v4.17a6.33,6.33,0,0,1,.58,2.19,2.62,2.62,0,0,1-.58,5V69.19c2.25-.07,4.27-.22,6.09-.46,12.62-1.63,15.32-7.1,15.32-13.28,0-1.75-.27-4.67-.61-7.74C71.58,45.06,71.22,42.31,70.93,40.13Z" style="fill:#f2e214"/><path d="M50.57,47.75a6.65,6.65,0,0,1,.5.86V44.44c-1.13.43-2.25.8-3.23,1.1A7,7,0,0,1,50.57,47.75Z" style="fill:#fff312"/><path d="M68.19,30.77H51.07v5.61l0,0a5.16,5.16,0,0,1,4.59.59c1.33.82,1.92,1.77,1.75,2.83a2.58,2.58,0,0,1-.54,1.15H68.19a5.08,5.08,0,0,0,0-10.16Z" style="fill:#0090e8"/><path d="M54.85,38.35a3.9,3.9,0,0,0-2.06-.64,3.5,3.5,0,0,0-1.13.2,4.41,4.41,0,0,0-.59.26v2.76h3.49c.74-.5,1.21-1,1.28-1.4S55.25,38.6,54.85,38.35Z" style="fill:#0090e8"/><path d="M48,30.77a5.08,5.08,0,0,0-2.08,9.71,3.45,3.45,0,0,0,.51.18,10.4,10.4,0,0,1,4.67-4.28V30.77Z" style="fill:#00a0ea"/><path d="M48.2,40.93h2.87V38.17A8.85,8.85,0,0,0,48.2,40.93Z" style="fill:#00a0ea"/><path d="M44.36,44.51c.61,0,1-1.15,1.31-2.64-.31.56-.58,1.09-.8,1.56-1.27-2.67-4-7.47-7.38-8.3a4.62,4.62,0,0,0-4.29,1.21c-1.56,1.37-1.63,2.63-1.41,3.45.56,2.11,3.78,3.73,6.89,4.83A44.92,44.92,0,0,1,44.36,44.51Zm-11-5.14c-.06-.2-.22-.81.9-1.79a3.27,3.27,0,0,1,2.16-.94,3,3,0,0,1,.66.08c2.62.65,5.11,4.9,6.39,7.62C39.34,43.33,33.91,41.38,33.38,39.37Z" style="fill:#e17871"/><path d="M51.65,50.8a6.33,6.33,0,0,0-.58-2.19v2A2.34,2.34,0,0,1,51.65,50.8Z" style="fill:#ff7676"/><path d="M51.07,42.67v1.77c2.4-.91,4.8-2.11,5.85-3.51H54.56A19.8,19.8,0,0,1,51.07,42.67Z" style="fill:#d36f6c"/><path d="M37.68,46.29a6.09,6.09,0,0,0-1.91,2.94l.33,0a2.65,2.65,0,0,1,1.31.36,4.51,4.51,0,0,1,1.32-2c1.61-1.36,4-1.41,5.26-1.33l1.43.2a6.51,6.51,0,0,1,3.81,2.28A4.29,4.29,0,0,1,50,50.61a2.6,2.6,0,0,1,.56-.06,2.32,2.32,0,0,1,.53.05v-2a6.65,6.65,0,0,0-.5-.86,7,7,0,0,0-2.73-2.21c1-.3,2.1-.67,3.23-1.1V42.67a46.92,46.92,0,0,1-4.78,1.61,22.33,22.33,0,0,1,1.91-3.35H48a5.12,5.12,0,0,1-1.57-.27c-.26.41-.5.82-.73,1.21-.28,1.49-.7,2.67-1.31,2.64a44.92,44.92,0,0,0-5.68.11c.42.16.85.3,1.27.43A6.75,6.75,0,0,0,37.68,46.29Z" style="fill:#e17871"/><path d="M55.71,37a5.16,5.16,0,0,0-4.59-.59l0,0v1.79a4.41,4.41,0,0,1,.59-.26,3.5,3.5,0,0,1,1.13-.2,3.9,3.9,0,0,1,2.06.64c.4.25,1.06.73,1,1.18s-.54.9-1.28,1.4h2.36a2.58,2.58,0,0,0,.54-1.15C57.63,38.72,57,37.77,55.71,37Z" style="fill:#d36f6c"/><path d="M51.07,38.17V36.38a10.4,10.4,0,0,0-4.67,4.28,5.12,5.12,0,0,0,1.57.27h.23A8.85,8.85,0,0,1,51.07,38.17Z" style="fill:#e17871"/><path d="M35.4,51.88a9.12,9.12,0,0,1,.37-2.65,2.65,2.65,0,1,0,1.64.33A7.14,7.14,0,0,0,37,51.88Z" style="fill:#fff"/><path d="M35.77,49.23a9.12,9.12,0,0,0-.37,2.65H37a7.14,7.14,0,0,1,.37-2.32,2.65,2.65,0,0,0-1.31-.36Z" style="fill:#fff"/><path d="M51.43,53.52l-.36-.08v2.31a2.62,2.62,0,0,0,.58-5A9,9,0,0,1,51.43,53.52Z" style="fill:#f4f4f4"/><path d="M49.83,53.15A7,7,0,0,0,50,50.61a2.63,2.63,0,0,0,.56,5.2,2.33,2.33,0,0,0,.53-.06V53.44Z" style="fill:#fff"/><path d="M51.07,53.44l.36.08a9,9,0,0,0,.22-2.72,2.34,2.34,0,0,0-.58-.2Z" style="fill:#f4f4f4"/><path d="M49.83,53.15l1.24.29V50.6a2.32,2.32,0,0,0-.53-.05,2.6,2.6,0,0,0-.56.06A7,7,0,0,1,49.83,53.15Z" style="fill:#fff"/></svg>