<svg xmlns="http://www.w3.org/2000/svg" viewBox="0 0 100 100"><title>baby_step</title><circle cx="50" cy="50" r="50" style="fill:#ffc431"/><path d="M35.46,47.57a12,12,0,0,0,0,17l17-17A12,12,0,0,0,35.46,47.57Z" style="fill:none"/><path d="M52.43,64.54a12,12,0,0,0,0-17l-17,17A12,12,0,0,0,52.43,64.54Z" style="fill:none"/><path d="M35.46,47.57a12,12,0,0,1,17,0L54.9,45.1,48.79,39l-.32-.32A18,18,0,0,0,31.22,68.78l4.24-4.24A12,12,0,0,1,35.46,47.57Z" style="fill:#fff800"/><path d="M54.9,45.1l-2.47,2.47a12,12,0,0,1-17,17l-4.24,4.24A18,18,0,0,0,61.34,51.53L61,51.21Z" style="fill:#f4e800"/><path d="M55.86,31.91l-2.37-2.37-2.12-2.12a5,5,0,1,0-7.07,7.07l4.17,4.17.32.32L54.9,45.1l1.77-1.77L62,38Z" style="fill:#00a0ea"/><path d="M72.58,48.63l-2.12-2.12-2.37-2.37L62,38l-5.31,5.31L54.9,45.1,61,51.21l.32.32,4.17,4.17a5,5,0,1,0,7.07-7.07Z" style="fill:#0090e8"/><path d="M68.09,44.14l2.37,2.37a14.43,14.43,0,0,0-3-9.72l3-3a3,3,0,0,0,0-4.24L62,38Z" style="fill:#f4f4f4"/><path d="M62,38l8.48-8.48a3,3,0,0,0-4.24,0l-3,3a14.43,14.43,0,0,0-9.72-3l2.37,2.37Z" style="fill:#fff"/></svg>