<svg xmlns="http://www.w3.org/2000/svg" viewBox="0 0 100 100"><title>first_anniversary</title><circle cx="50" cy="50" r="50" style="fill:#3698ce"/><polygon points="50 24.26 50 24.26 50 24.26 50 24.26" style="fill:none"/><path d="M52,26.26a2,2,0,0,0-2-2v2.92Z" style="fill:#b55252"/><path d="M50,24.26h0a2,2,0,0,0-2,2v1.83l2-.91Z" style="fill:#ca5b5a"/><polygon points="50 34.05 48.07 34.94 50 34.94 50 34.05" style="fill:#ca5b5a"/><polygon points="50 32.22 52 31.31 52 28.09 50 29.01 50 32.22" style="fill:#b55252"/><polygon points="50 29.01 48 29.92 48 33.14 50 32.22 50 29.01" style="fill:#ca5b5a"/><polygon points="50 34.94 52 34.94 52 33.14 50 34.05 50 34.94" style="fill:#b55252"/><polygon points="50 29.01 52 28.09 52 26.26 50 27.18 50 29.01" style="fill:#f4f4f4"/><polygon points="50 27.18 48 28.09 48 29.92 50 29.01 50 27.18" style="fill:#fff"/><polygon points="50 34.05 50 32.22 48 33.14 48 34.94 48.07 34.94 50 34.05" style="fill:#fff"/><polygon points="50 34.05 52 33.14 52 31.31 50 32.22 50 34.05" style="fill:#f4f4f4"/><path d="M48.59,22.85A13.86,13.86,0,0,1,50,19.54h0V15.72h0s-2.55,4.58-2.55,6a2.54,2.54,0,0,0,2.27,2.52A1.41,1.41,0,0,1,48.59,22.85Z" style="fill:#f4c46b"/><path d="M51.41,22.85a1.42,1.42,0,0,1-1.13,1.38,2.54,2.54,0,0,0,2.27-2.52c0-1.41-2.55-6-2.55-6v3.82A13.86,13.86,0,0,1,51.41,22.85Z" style="fill:#e2b266"/><polygon points="50 24.26 50 24.26 50 24.26 50 24.26" style="fill:#fff"/><path d="M50,24.26a2.4,2.4,0,0,1-.28,0A1.27,1.27,0,0,0,50,24.26Z" style="fill:#fff"/><path d="M50,24.26a1.27,1.27,0,0,0,.28,0,2.4,2.4,0,0,1-.28,0Z" style="fill:#fff"/><path d="M50,19.54h0a13.86,13.86,0,0,0-1.41,3.31,1.41,1.41,0,0,0,1.13,1.38,2.4,2.4,0,0,0,.28,0h0Z" style="fill:#fff"/><path d="M51.41,22.85A13.86,13.86,0,0,0,50,19.54v4.72a2.4,2.4,0,0,0,.28,0A1.42,1.42,0,0,0,51.41,22.85Z" style="fill:#f4f4f4"/><path d="M76.13,72.7H50v3.58H76.13a1.79,1.79,0,1,0,0-3.58Z" style="fill:#354851"/><path d="M25.87,72.7h-2a1.79,1.79,0,1,0,0,3.58H50V72.7Z" style="fill:#3a4f5a"/><rect x="50" y="66.02" width="24.13" height="6.68" style="fill:#f4f4f4"/><path d="M50,53.72h0a2,2,0,0,1-2-2V50.29a2,2,0,0,1-.43.05,2.43,2.43,0,0,1-2.42-2.43,2.43,2.43,0,1,1-4.85,0,2.43,2.43,0,1,1-4.85,0,2.43,2.43,0,1,1-4.85,0h0a2.43,2.43,0,0,1-2.43,2.43,2.36,2.36,0,0,1-1.45-.5,18.64,18.64,0,0,0-.85,5.57H50Z" style="fill:#fff"/><rect x="50" y="58.94" width="24.13" height="3.54" style="fill:#f4f4f4"/><path d="M69.4,47.91h0a2.43,2.43,0,1,1-4.85,0,2.43,2.43,0,1,1-4.85,0,2.43,2.43,0,1,1-4.85,0,2.43,2.43,0,0,1-2.43,2.43,2,2,0,0,1-.42-.05v1.43a2,2,0,0,1-2,2v1.69H74.13a18.58,18.58,0,0,0-.86-5.56,2.4,2.4,0,0,1-1.44.49A2.43,2.43,0,0,1,69.4,47.91Z" style="fill:#f4f4f4"/><rect x="25.87" y="58.94" width="24.13" height="3.54" style="fill:#fff"/><polygon points="50 66.02 25.87 66.02 25.87 70.29 25.87 72.7 50 72.7 50 66.02" style="fill:#fff"/><path d="M52,51.72V50.29a2.42,2.42,0,0,1-2-2.38v5.81A2,2,0,0,0,52,51.72Z" style="fill:#f4f4f4"/><path d="M50,47.91a2.42,2.42,0,0,1-2,2.38v1.43a2,2,0,0,0,2,2h0V47.91Z" style="fill:#fff"/><rect x="25.87" y="55.41" width="24.13" height="3.54" style="fill:#ca5b5a"/><rect x="50" y="55.41" width="24.13" height="3.54" style="fill:#b55252"/><rect x="50" y="62.48" width="24.13" height="3.54" style="fill:#b55252"/><rect x="25.87" y="62.48" width="24.13" height="3.54" style="fill:#ca5b5a"/><path d="M44.59,36.69H48V34.94H44.59A20.5,20.5,0,0,0,26,46.89l-.1.27a2.36,2.36,0,0,0-.12.75,2.4,2.4,0,0,0,1,1.93A18.72,18.72,0,0,1,44.59,36.69Z" style="fill:#e17871"/><polygon points="50 34.94 48.07 34.94 48 34.97 48 36.69 50 36.69 50 34.94" style="fill:#e17871"/><polygon points="48.07 34.94 48 34.94 48 34.97 48.07 34.94" style="fill:#e17871"/><path d="M30.6,47.91h0a2.43,2.43,0,1,0,4.85,0,2.43,2.43,0,1,0,4.85,0,2.43,2.43,0,1,0,4.85,0,2.43,2.43,0,0,0,2.42,2.43,2,2,0,0,0,.43-.05V36.69H44.59A18.72,18.72,0,0,0,26.72,49.84a2.36,2.36,0,0,0,1.45.5A2.43,2.43,0,0,0,30.6,47.91Z" style="fill:#e17871"/><path d="M50,47.91h0V44.15l-2,.92v5.22A2.42,2.42,0,0,0,50,47.91Z" style="fill:#e17871"/><polygon points="50 39.1 48 40.02 48 43.23 50 42.32 50 39.1" style="fill:#e17871"/><polygon points="50 36.69 48 36.69 48 38.19 50 37.27 50 36.69" style="fill:#e17871"/><polygon points="50 37.27 48 38.19 48 40.02 50 39.1 50 37.27" style="fill:#e17871"/><polygon points="50 42.32 48 43.23 48 45.06 50 44.15 50 42.32" style="fill:#e17871"/><path d="M74.12,47.13a1.63,1.63,0,0,0-.1-.25A20.5,20.5,0,0,0,55.41,34.94H50v13a2.42,2.42,0,0,0,2,2.38,2,2,0,0,0,.42.05,2.43,2.43,0,0,0,2.43-2.43,2.43,2.43,0,1,0,4.85,0,2.43,2.43,0,1,0,4.85,0,2.43,2.43,0,1,0,4.85,0h0a2.43,2.43,0,0,0,2.43,2.43,2.45,2.45,0,0,0,2.42-2.43A2.55,2.55,0,0,0,74.12,47.13Z" style="fill:#d36f6c"/></svg>