<svg xmlns="http://www.w3.org/2000/svg" viewBox="0 0 100 100"><title>foltyn_approve</title><circle cx="50" cy="50" r="50" style="fill:#58adc4"/><path d="M75.57,39.42c-.26,4.32-.8,9.86-.8,9.86l-.16.07c0,.44,0,.9,0,1.37a1.12,1.12,0,0,0,.45-.26c2.66-2.38,2.94-6.32,1.94-9A4.1,4.1,0,0,0,75.57,39.42Z" style="fill:#f4bd98"/><path d="M25.23,49.28s-.54-5.54-.8-9.86a4.1,4.1,0,0,0-1.47,2c-1,2.7-.72,6.64,1.94,9a1.12,1.12,0,0,0,.45.26c0-.47,0-.93,0-1.37Z" style="fill:#ffd5ab"/><path d="M73.41,44.73a18,18,0,0,1-1.69-4.51c-.2-1.83-1.15-.56-2.42-1s-1.79-2.55-1.12-4.89,1.36-7.75-3.81-10.53c-5-2.69-9.9-1.26-14.37.35V67.71c.89-.87,7,1.73,7,1.73L50,69h0l5.79.37-1.2.88L50,70.7v2.48a7,7,0,0,1,2.38.15,5.68,5.68,0,0,1,2.48,1.29,23.24,23.24,0,0,0-2.62-.31,13.9,13.9,0,0,0-2.24.14v6.94s17.75.06,23.78-31.67A21.28,21.28,0,0,1,73.41,44.73ZM50.89,61.36c.1-.17,1.32-1.71,1.55-1.68s1.34-1,2.15,1A25.09,25.09,0,0,1,50.89,61.36ZM66,51.27c-.23-.38-.66-.4-1-.49s-.81-.11-1.21-.17l-2.47-.26a29.9,29.9,0,0,1-5-.9,13.35,13.35,0,0,1,5.14-.36,11.87,11.87,0,0,1,2.55.56,5.83,5.83,0,0,1,1.22.56,2.68,2.68,0,0,1,.55.42A.77.77,0,0,1,66,51.27ZM56.4,45.8c0-.34.57-.64,1.43-.83a6.45,6.45,0,0,1,1-.15,10.32,10.32,0,0,1,2.4,0,6.66,6.66,0,0,1,1,.15c.86.19,1.43.49,1.43.83,0,.58-1.61,1-3.59,1S56.4,46.38,56.4,45.8Zm11.1-3a30.92,30.92,0,0,1-6.9,0,14.51,14.51,0,0,0-4.49.62,9.56,9.56,0,0,1-3,.48h0s4-4.45,8.26-4.5C66,39.39,69.53,39.27,67.5,42.84Z" style="fill:#f4bd98"/><path d="M74.07,46s-.29-.53-.66-1.29a21.28,21.28,0,0,0,.37,5c.15-.77.28-1.57.41-2.37Z" style="fill:#f4bd98"/><path d="M35.63,23.81c-5.17,2.78-4.49,8.19-3.81,10.53s.15,4.45-1.12,4.89-2.22-.84-2.42,1a18,18,0,0,1-1.69,4.51c-.37.76-.66,1.29-.66,1.29l-.12,1.33c.13.8.26,1.6.41,2.37C32.25,81.45,50,81.39,50,81.39v2.54h0V74.45l-.26,0a14.12,14.12,0,0,0-2.43.66,10.91,10.91,0,0,0-1.17.51,2.39,2.39,0,0,0-1,.78,1.88,1.88,0,0,1,.62-1.27,5.34,5.34,0,0,1,1.11-.9,7.38,7.38,0,0,1,2.66-1l.47,0V70.7l-4.59-.46-1.2-.88L50,69l-7,.45s6.12-2.6,7-1.73V69h0V24.16C45.53,22.55,40.62,21.12,35.63,23.81Zm3,15.63c4.21.05,8.26,4.5,8.26,4.5h0a9.45,9.45,0,0,1-3-.48,14.62,14.62,0,0,0-4.5-.62,30.92,30.92,0,0,1-6.9,0C30.47,39.27,34,39.39,38.63,39.44Zm5,6.36c0,.58-1.61,1-3.59,1s-3.59-.46-3.59-1c0-.34.57-.64,1.43-.83a6.66,6.66,0,0,1,1-.15,10.32,10.32,0,0,1,2.4,0,6.45,6.45,0,0,1,1,.15C43,45.16,43.6,45.46,43.6,45.8Zm-4.82,4.55-2.47.26c-.4.06-.82.09-1.21.17s-.82.11-1.05.49a.77.77,0,0,1,.27-.64,2.68,2.68,0,0,1,.55-.42,5.83,5.83,0,0,1,1.22-.56,11.87,11.87,0,0,1,2.55-.56,13.35,13.35,0,0,1,5.14.36A29.9,29.9,0,0,1,38.78,50.35Zm10.33,11a25.09,25.09,0,0,1-3.7-.67s.05-.07.07-.12a2.93,2.93,0,0,1-1.39-1.11h0a2.22,2.22,0,0,1-.19-1.89c.72-2.41,1.51-.42,1.51-.42l2.34-15,1,.82.35,10.23.75,5.92Z" style="fill:#ffd5ab"/><path d="M26.37,39.63C29.05,25,38.6,16.25,50,16.25h0V14A31.88,31.88,0,0,0,39.82,15.7c-1.43.49-2.79,1-4.07,1.58C26.9,21.15,24.5,32.19,24.31,35a39.49,39.49,0,0,0,.12,4.44,3.46,3.46,0,0,1,1.86-.68Z" style="fill:#7d7d7d"/><path d="M25.39,49.35c.05-1.24.12-2.36.2-3.31l.06.37a45,45,0,0,1,.72-6.78l-.08-.89a3.46,3.46,0,0,0-1.86.68c.26,4.32.8,9.86.8,9.86Z" style="fill:#7d7d7d"/><path d="M50,16.25c-11.4,0-20.95,8.74-23.63,23.38.08,1.11.2,3.1.22,5.1a18,18,0,0,0,1.69-4.51c.2-1.83,1.15-.56,2.42-1s1.79-2.55,1.12-4.89-1.36-7.75,3.81-10.53c5-2.69,9.9-1.26,14.37.35h0V16.25Z" style="fill:#7d7d7d"/><path d="M75.69,35c-.19-2.79-2.59-13.83-11.44-17.7-1.28-.56-2.64-1.09-4.07-1.58A31.88,31.88,0,0,0,50,14V24.16c4.47-1.61,9.38-3,14.37-.35,5.17,2.78,4.49,8.19,3.81,10.53S68,38.79,69.3,39.23s2.22-.84,2.42,1a18,18,0,0,0,1.69,4.51c.37.76.66,1.29.66,1.29l.12,1.33c.06-.32.11-.62.16-.94l.06-.37c.08,1,.15,2.07.2,3.31l.16-.07s.54-5.54.8-9.86A39.49,39.49,0,0,0,75.69,35Z" style="fill:#6d6d6d"/><path d="M25.65,46.41c.05.32.1.62.16.94L25.93,46s.29-.53.66-1.29c0-2-.14-4-.22-5.1A45,45,0,0,0,25.65,46.41Z" style="fill:#7d7d7d"/><path d="M39.4,42.84a14.62,14.62,0,0,1,4.5.62,9.45,9.45,0,0,0,3,.48h0s-4-4.45-8.26-4.5c-4.63,0-8.16-.17-6.13,3.4A30.92,30.92,0,0,0,39.4,42.84Z" style="fill:#2a292e"/><path d="M61.37,39.44c-4.21.05-8.26,4.5-8.26,4.5h0a9.56,9.56,0,0,0,3-.48,14.51,14.51,0,0,1,4.49-.62,30.92,30.92,0,0,0,6.9,0C69.53,39.27,66,39.39,61.37,39.44Z" style="fill:#2a292e"/><path d="M52.44,59.68c-.23,0-1.45,1.51-1.55,1.68a25.09,25.09,0,0,0,3.7-.67C53.78,58.72,52.67,59.71,52.44,59.68Z" style="fill:#7c5f4a"/><path d="M74.4,49.45v-.06c0,.43,0,.86,0,1.28a.44.44,0,0,0,.3,0c0-.47,0-.93,0-1.37Z" style="fill:#2a292e"/><path d="M74.65,50.72a.44.44,0,0,1-.3,0,1.46,1.46,0,0,1-.57-1C67.75,81.45,50,81.39,50,81.39V86C72.5,86,74.94,63.27,74.65,50.72Z" style="fill:#101011"/><path d="M73.78,49.72a1.46,1.46,0,0,0,.57,1c0-.42,0-.85,0-1.28l-.2-2C74.06,48.15,73.93,49,73.78,49.72Z" style="fill:#2a292e"/><path d="M74.35,46.41c0,.59.06,1.16.06,1.77,0,.41,0,.81,0,1.21v.06l.21-.1c0-1.24-.12-2.36-.2-3.31Z" style="fill:#2a292e"/><path d="M74.35,46.41c0,.32-.1.62-.16.94l.2,2c0-.4,0-.8,0-1.21C74.41,47.57,74.37,47,74.35,46.41Z" style="fill:#2a292e"/><path d="M25.65,50.67a.44.44,0,0,1-.3,0C25.06,63.27,27.5,86,50,86v-2C37.09,83.93,26.53,69.25,25.65,50.67Z" style="fill:#2a292e"/><path d="M25.65,50.67c0-.42,0-.85,0-1.28v.06l-.21-.1c0,.44,0,.9,0,1.37A.44.44,0,0,0,25.65,50.67Z" style="fill:#2a292e"/><path d="M26.22,49.72a1.49,1.49,0,0,1-.57,1C26.53,69.25,37.09,83.93,50,83.93V81.39S32.25,81.45,26.22,49.72Z" style="fill:#2a292e"/><path d="M25.61,49.39c0,.43,0,.86,0,1.28a1.49,1.49,0,0,0,.57-1c-.15-.77-.28-1.57-.41-2.37Z" style="fill:#2a292e"/><path d="M25.65,46.41,25.59,46c-.08,1-.15,2.07-.2,3.31l.21.1v-.06c0-.4,0-.8,0-1.21C25.59,47.57,25.63,47,25.65,46.41Z" style="fill:#2a292e"/><path d="M25.65,46.41c0,.59-.06,1.16-.06,1.77,0,.41,0,.81,0,1.21l.2-2C25.75,47,25.7,46.73,25.65,46.41Z" style="fill:#2a292e"/><path d="M43.9,57.57a2.22,2.22,0,0,0,.19,1.89h0a2.93,2.93,0,0,0,1.39,1.11c.8-1.78,1.85-.86,2.08-.89s1.45,1.51,1.55,1.68h0l.69-2.26-.75-5.92L48.7,43l-1-.82-2.34,15S44.62,55.16,43.9,57.57Z" style="fill:#cca183"/><path d="M45.8,60.69l-.32-.12s0,.07-.07.12a25.09,25.09,0,0,0,3.7.67h0s-1-.24-2.14-.58A6.25,6.25,0,0,1,45.8,60.69Z" style="fill:#7c5f4a"/><path d="M47.56,59.68c-.23,0-1.28-.89-2.08.89l.32.12a6.25,6.25,0,0,0,1.17.09c1.12.34,2.14.58,2.14.58C49,61.19,47.79,59.65,47.56,59.68Z" style="fill:#7c5f4a"/><path d="M38.64,49.09a11.87,11.87,0,0,0-2.55.56,5.83,5.83,0,0,0-1.22.56,2.68,2.68,0,0,0-.55.42.77.77,0,0,0-.27.64c.23-.38.66-.4,1.05-.49s.81-.11,1.21-.17l2.47-.26a29.9,29.9,0,0,0,5-.9A13.35,13.35,0,0,0,38.64,49.09Z" style="fill:#cca183"/><path d="M49.53,73.23a7.38,7.38,0,0,0-2.66,1,5.34,5.34,0,0,0-1.11.9,1.88,1.88,0,0,0-.62,1.27,2.39,2.39,0,0,1,1-.78,10.91,10.91,0,0,1,1.17-.51,14.12,14.12,0,0,1,2.43-.66l.26,0V73.18Z" style="fill:#cca183"/><path d="M54.86,74.62a5.68,5.68,0,0,0-2.48-1.29A7,7,0,0,0,50,73.18v1.27a13.9,13.9,0,0,1,2.24-.14A23.24,23.24,0,0,1,54.86,74.62Z" style="fill:#bc957a"/><path d="M65.13,50.21a5.83,5.83,0,0,0-1.22-.56,11.87,11.87,0,0,0-2.55-.56,13.35,13.35,0,0,0-5.14.36,29.9,29.9,0,0,0,5,.9l2.47.26c.4.06.82.09,1.21.17s.82.11,1,.49a.77.77,0,0,0-.27-.64A2.68,2.68,0,0,0,65.13,50.21Z" style="fill:#bc957a"/><path d="M43,69.44,50,69V67.71C49.11,66.84,43,69.44,43,69.44Z" style="fill:#cd7670"/><path d="M50,67.71V69l7,.45S50.89,66.84,50,67.71Z" style="fill:#bf6866"/><polygon points="44.21 69.36 45.41 70.24 50 70.7 50 69.85 50 68.99 44.21 69.36" style="fill:#cca183"/><polygon points="50 68.99 50 68.99 50 68.99 50 68.99" style="fill:#cca183"/><polygon points="50 68.99 50 69.85 50 70.7 50 68.99 50 68.99" style="fill:#cca183"/><polygon points="55.79 69.36 50 68.99 50 70.7 54.59 70.24 55.79 69.36" style="fill:#bc957a"/><polygon points="50 68.99 50 68.99 50 69.85 50 68.99 50 68.99" style="fill:#cca183"/><path d="M63.58,45.8c0-.34-.57-.64-1.43-.83a6.66,6.66,0,0,0-1-.15,1.23,1.23,0,0,1,.08.39,1.28,1.28,0,0,1-2.56,0,1.23,1.23,0,0,1,.08-.39,6.45,6.45,0,0,0-1,.15c-.86.19-1.43.49-1.43.83,0,.58,1.61,1,3.59,1S63.58,46.38,63.58,45.8Z" style="fill:#fff"/><path d="M60,46.49a1.28,1.28,0,0,0,1.28-1.28,1.23,1.23,0,0,0-.08-.39,10.32,10.32,0,0,0-2.4,0,1.23,1.23,0,0,0-.08.39A1.28,1.28,0,0,0,60,46.49Z" style="fill:#4d5963"/><path d="M41.21,44.82a1.23,1.23,0,0,1,.08.39,1.28,1.28,0,0,1-2.56,0,1.23,1.23,0,0,1,.08-.39,6.66,6.66,0,0,0-1,.15c-.86.19-1.43.49-1.43.83,0,.58,1.61,1,3.59,1s3.59-.46,3.59-1c0-.34-.57-.64-1.43-.83A6.45,6.45,0,0,0,41.21,44.82Z" style="fill:#fff"/><path d="M40,46.49a1.28,1.28,0,0,0,1.28-1.28,1.23,1.23,0,0,0-.08-.39,10.32,10.32,0,0,0-2.4,0,1.23,1.23,0,0,0-.08.39A1.28,1.28,0,0,0,40,46.49Z" style="fill:#4d5963"/></svg>