<svg xmlns="http://www.w3.org/2000/svg" viewBox="0 0 100 100"><title>good_job_kiddo</title><circle cx="50" cy="50" r="50" style="fill:#694d87"/><path d="M50,38.41A33.92,33.92,0,0,0,16.77,65.52a114.64,114.64,0,0,1,15.54-2h0C32.31,46.87,50,38.41,50,38.41Z" style="fill:#fecd39"/><path d="M67.69,63.48h0a114.64,114.64,0,0,1,15.54,2A33.92,33.92,0,0,0,50,38.41S67.69,46.87,67.69,63.48Z" style="fill:#eab634"/><path d="M32.31,63.48h0c5.34-.39,11.34-.62,17.69-.62V38.41S32.31,46.87,32.31,63.48Z" style="fill:#fff"/><path d="M67.69,63.48C67.69,46.87,50,38.41,50,38.41V62.86c6.35,0,12.35.23,17.69.62Z" style="fill:#f4f4f4"/><rect x="49.09" y="28.92" width="0.91" height="9.49" style="fill:#2a292e"/><rect x="50" y="28.92" width="0.91" height="9.49" style="fill:#101011"/><path d="M50,28.92a24.35,24.35,0,0,1-12.18,3.66c-6.73,0-12.19-1.64-12.19-3.66s5.46-3.66,12.19-3.66A24.35,24.35,0,0,1,50,28.92Z" style="fill:#ca5b5a"/><path d="M50,28.92a24.35,24.35,0,0,1,12.18-3.66c6.73,0,12.19,1.64,12.19,3.66s-5.46,3.66-12.19,3.66A24.35,24.35,0,0,1,50,28.92Z" style="fill:#b55252"/><path d="M83.49,64.33a116.07,116.07,0,0,0-15.71-2.06c-5.58-.41-11.56-.62-17.78-.62v2.43c6.16,0,12.08.21,17.6.62a112.72,112.72,0,0,1,15.37,2,1.1,1.1,0,0,0,.26,0,1.21,1.21,0,0,0,.26-2.4Z" style="fill:#b55252"/><path d="M32.22,62.27a116.07,116.07,0,0,0-15.71,2.06A1.22,1.22,0,1,0,17,66.71a112.72,112.72,0,0,1,15.37-2c5.52-.41,11.44-.62,17.6-.62V61.65C43.78,61.65,37.8,61.86,32.22,62.27Z" style="fill:#ca5b5a"/></svg>