<svg xmlns="http://www.w3.org/2000/svg" viewBox="0 0 100 100"><title>good_job_kid</title><circle cx="50" cy="50" r="50" style="fill:#694d87"/><path d="M53.17,18.59l0,0Z" style="fill:none"/><path d="M79.51,47a28.74,28.74,0,0,1,.18,3.23A29.65,29.65,0,0,1,76,64.47a9.3,9.3,0,0,0,1.5.14,8.94,8.94,0,0,0,2-17.65Z" style="fill:#d68e6e"/><path d="M20.49,47a8.94,8.94,0,0,0,2,17.65,9.3,9.3,0,0,0,1.5-.14,29.65,29.65,0,0,1-3.65-14.28A28.74,28.74,0,0,1,20.49,47Z" style="fill:#f4bd98"/><path d="M50,71.19a7.74,7.74,0,0,1-7.43-5.63,1.22,1.22,0,1,1,2.34-.66A5.31,5.31,0,0,0,50,68.76h0V60.6c-1.73,0-3.14-1.06-3.14-2.36s1.41-2.35,3.14-2.35v-25a6.55,6.55,0,0,1-5.76-3.32,6.37,6.37,0,0,1-.33-.69.56.56,0,0,1,0-.08,9.87,9.87,0,0,1-.32-5.61A29.7,29.7,0,0,0,20.49,47a9.08,9.08,0,0,1,2-.23A8.94,8.94,0,0,1,24,64.47,29.68,29.68,0,0,0,50,79.88h0V71.19ZM35.19,57a3.68,3.68,0,1,1,3.57-3.68A3.61,3.61,0,0,1,35.19,57Z" style="fill:#ffd5ab"/><path d="M68.63,55.67a8.92,8.92,0,0,1,8.91-8.94,9.08,9.08,0,0,1,2,.23A29.7,29.7,0,0,0,55.52,21a1.3,1.3,0,0,1,.1.15A6.53,6.53,0,0,1,50,30.91v25c1.73,0,3.14,1,3.14,2.35S51.73,60.6,50,60.6v8.16a5.3,5.3,0,0,0,5-3.86,1.22,1.22,0,1,1,2.34.66A7.74,7.74,0,0,1,50,71.19v8.69A29.68,29.68,0,0,0,76,64.47,8.92,8.92,0,0,1,68.63,55.67ZM64.81,57a3.68,3.68,0,1,1,3.56-3.68A3.62,3.62,0,0,1,64.81,57Z" style="fill:#f4bd98"/><path d="M79.51,47a9.08,9.08,0,0,0-2-.23A8.94,8.94,0,0,0,76,64.47a29.65,29.65,0,0,0,3.65-14.28A28.74,28.74,0,0,0,79.51,47Z" style="fill:#f4bd98"/><path d="M31.37,55.67a8.92,8.92,0,0,0-8.91-8.94,9.08,9.08,0,0,0-2,.23,28.74,28.74,0,0,0-.18,3.23A29.65,29.65,0,0,0,24,64.47,8.92,8.92,0,0,0,31.37,55.67Z" style="fill:#ffd5ab"/><path d="M35.19,49.61a3.68,3.68,0,1,0,3.57,3.68A3.62,3.62,0,0,0,35.19,49.61Z" style="fill:#442106"/><path d="M64.81,49.61a3.68,3.68,0,1,0,3.56,3.68A3.63,3.63,0,0,0,64.81,49.61Z" style="fill:#442106"/><path d="M53.34,18.73l.17.14Z" style="fill:#59351c"/><path d="M53.76,19.08l-.25-.21,0,0Z" style="fill:#59351c"/><path d="M53.76,19.08l.09.07Z" style="fill:#59351c"/><path d="M50,20.5V15.43c-1.73-2.17-1.65-3.31-1.66-3.31a19.68,19.68,0,0,0-4.8,9.09A29.88,29.88,0,0,1,50,20.5Z" style="fill:#59351c"/><path d="M55.52,21a11.69,11.69,0,0,0-2-2.11l-.38-.32,0,0,0,0,.17.14A24.2,24.2,0,0,1,50,15.43V20.5A29.52,29.52,0,0,1,55.52,21Z" style="fill:#442916"/><path d="M53.55,18.91l0,0-.17-.14-.17-.14Z" style="fill:#59351c"/><path d="M43.86,26.82a.56.56,0,0,0,0,.08,6.37,6.37,0,0,0,.33.69A6.55,6.55,0,0,0,50,30.91V20.5h0a29.88,29.88,0,0,0-6.46.71A9.87,9.87,0,0,0,43.86,26.82Z" style="fill:#59351c"/><path d="M50,30.91a6.53,6.53,0,0,0,5.62-9.74,1.3,1.3,0,0,0-.1-.15A29.52,29.52,0,0,0,50,20.5Z" style="fill:#442916"/><path d="M53.14,58.24c0-1.3-1.41-2.35-3.14-2.35V60.6C51.73,60.6,53.14,59.54,53.14,58.24Z" style="fill:#d3967a"/><path d="M46.86,58.24c0,1.3,1.41,2.36,3.14,2.36V55.89C48.27,55.89,46.86,56.94,46.86,58.24Z" style="fill:#efad89"/><path d="M44.87,64.9a1.22,1.22,0,1,0-2.34.66A7.74,7.74,0,0,0,50,71.19h0V68.76h0A5.31,5.31,0,0,1,44.87,64.9Z" style="fill:#d68e6e"/><path d="M57.39,65.56a1.22,1.22,0,1,0-2.34-.66,5.3,5.3,0,0,1-5,3.86v2.43A7.74,7.74,0,0,0,57.39,65.56Z" style="fill:#c18167"/></svg>