<svg xmlns="http://www.w3.org/2000/svg" viewBox="0 0 100 100"><title>hat_trick</title><circle cx="50" cy="50" r="50" style="fill:#3698ce"/><path d="M58.4,22.24l.36.11Z" style="fill:#fff"/><path d="M57.76,22.05l.35.1Z" style="fill:#fff"/><path d="M43.88,21.65l.47-.1Z" style="fill:#fff"/><path d="M57.12,21.88l.34.09Z" style="fill:#fff"/><path d="M47.62,21.1l.31,0Z" style="fill:#fff"/><path d="M59.65,22.65l.37.13Z" style="fill:#fff"/><path d="M26.1,33.57c.42-.6.85-1.18,1.3-1.74C27,32.39,26.52,33,26.1,33.57Z" style="fill:#fff"/><path d="M49.07,21h0Z" style="fill:#fff"/><path d="M25.48,34.51c.19-.3.39-.6.59-.9C25.87,33.91,25.67,34.21,25.48,34.51Z" style="fill:#fff"/><path d="M43.24,21.8l.49-.12Z" style="fill:#fff"/><path d="M59,22.44l.36.12Z" style="fill:#fff"/><path d="M56.46,21.72l.34.08Z" style="fill:#fff"/><path d="M72.6,31.83c.45.56.88,1.14,1.3,1.74C73.48,33,73.05,32.39,72.6,31.83Z" style="fill:#fff"/><path d="M46.24,21.24l.34,0Z" style="fill:#fff"/><path d="M44.53,21.52l.45-.09Z" style="fill:#fff"/><path d="M52.8,21.14a1.53,1.53,0,0,1,.3,0C53,21.15,52.9,21.15,52.8,21.14Z" style="fill:#fff"/><path d="M48.33,21.05l.28,0Z" style="fill:#fff"/><path d="M52.11,21.08l.29,0Z" style="fill:#fff"/><path d="M51.41,21l.28,0Z" style="fill:#fff"/><path d="M53.5,21.21l.3,0Z" style="fill:#fff"/><path d="M55.8,21.58l.32.07Z" style="fill:#fff"/><path d="M50.71,21h0Z" style="fill:#fff"/><path d="M54.91,21.42l.25,0Z" style="fill:#fff"/><path d="M45.16,21.4l.87-.13Z" style="fill:#fff"/><path d="M54.19,21.3l.29,0Z" style="fill:#fff"/><path d="M76.65,38.54l.39,1Z" style="fill:#fff"/><path d="M32.89,73.42c-.56-.42-1.11-.85-1.64-1.3C31.78,72.57,32.33,73,32.89,73.42Z" style="fill:#fff"/><path d="M28.25,69.18c-.46-.52-.9-1.06-1.33-1.62C27.35,68.12,27.79,68.66,28.25,69.18Z" style="fill:#fff"/><path d="M31.25,72.12c-.54-.45-1.05-.93-1.55-1.41C30.2,71.19,30.71,71.67,31.25,72.12Z" style="fill:#fff"/><path d="M73.08,67.56c-.43.56-.87,1.1-1.33,1.62C72.21,68.66,72.65,68.12,73.08,67.56Z" style="fill:#fff"/><path d="M29.7,70.7c-.5-.48-1-1-1.44-1.51C28.72,69.71,29.2,70.22,29.7,70.7Z" style="fill:#fff"/><path d="M67.1,73.42a29.09,29.09,0,0,1-7.46,3.94A29.09,29.09,0,0,0,67.1,73.42Z" style="fill:#fff"/><path d="M40.36,77.36a29.09,29.09,0,0,1-7.46-3.94A29.09,29.09,0,0,0,40.36,77.36Z" style="fill:#fff"/><path d="M68.75,72.12c-.53.45-1.08.88-1.64,1.3C67.67,73,68.22,72.57,68.75,72.12Z" style="fill:#fff"/><path d="M71.74,69.19c-.46.52-.94,1-1.44,1.51C70.8,70.22,71.28,69.71,71.74,69.19Z" style="fill:#fff"/><path d="M70.3,70.71c-.5.48-1,1-1.55,1.41C69.29,71.67,69.8,71.19,70.3,70.71Z" style="fill:#fff"/><path d="M43.3,60.66l-4.22-13L50,39.76V27.69L39.08,24.27l1.21-1.6a27.51,27.51,0,0,1,2.85-.85,29,29,0,0,0-15.71,10,28.9,28.9,0,0,1,3.87-3.95H36L32.07,38.73l-9.4,6.73-.77-2.67c.09-.34.19-.68.29-1a29,29,0,0,0,4.73,25.78V62.88l10.89,3.88,6.73,9.4-4.18,1.2A29,29,0,0,0,50,79V60.66Z" style="fill:#fff"/><path d="M62.19,66.76l10.89-3.88v4.68a29,29,0,0,0,4.73-25.78c.1.33.2.67.29,1l-.77,2.67-9.4-6.73L64.05,27.84H68.7a28.9,28.9,0,0,1,3.87,3.95,29,29,0,0,0-12.55-9l1.13,1.49-11,3.46-.12,0V39.76l.12-.08,11,8-4.22,13H50V79a29,29,0,0,0,9.64-1.64l-4.18-1.2Z" style="fill:#f4f4f4"/><path d="M75.68,36.52c.33.62.63,1.25.91,1.89C76.31,37.77,76,37.14,75.68,36.52Z" style="fill:#fff"/><path d="M23.41,38.41c.28-.64.58-1.27.91-1.89C24,37.14,23.69,37.77,23.41,38.41Z" style="fill:#fff"/><path d="M73.93,33.61c.2.3.4.6.59.9C74.33,34.21,74.13,33.91,73.93,33.61Z" style="fill:#fff"/><path d="M23,39.5l.39-1Z" style="fill:#fff"/><path d="M77.45,40.62c.11.33.21.65.31,1C77.66,41.27,77.56,41,77.45,40.62Z" style="fill:#fff"/><path d="M46.93,21.16l.32,0Z" style="fill:#fff"/><path d="M24.38,36.41c.33-.63.69-1.25,1.07-1.86C25.07,35.16,24.71,35.78,24.38,36.41Z" style="fill:#fff"/><path d="M74.55,34.55c.38.61.74,1.23,1.07,1.86C75.29,35.78,74.93,35.16,74.55,34.55Z" style="fill:#fff"/><path d="M77.08,39.61c.12.31.23.62.34.94C77.31,40.23,77.2,39.92,77.08,39.61Z" style="fill:#fff"/><path d="M22.58,40.55c.11-.32.22-.63.34-.94C22.8,39.92,22.69,40.23,22.58,40.55Z" style="fill:#fff"/><path d="M22.24,41.6c.1-.33.2-.65.31-1C22.44,41,22.34,41.27,22.24,41.6Z" style="fill:#fff"/><polygon points="43.3 60.66 50 60.66 50 39.76 39.08 47.69 43.3 60.66" style="fill:#303030"/><polygon points="56.93 60.66 61.15 47.69 50.12 39.68 50 39.76 50 60.66 56.93 60.66" style="fill:#221f20"/><path d="M47.93,21.07l.4,0Z" style="fill:#221f20"/><path d="M47.25,21.13l.37,0Z" style="fill:#221f20"/><path d="M43.73,21.68l.15,0Z" style="fill:#221f20"/><path d="M43.14,21.82l.1,0Z" style="fill:#221f20"/><path d="M44.35,21.55l.18,0Z" style="fill:#221f20"/><path d="M45,21.43l.18,0Z" style="fill:#221f20"/><path d="M46.58,21.2l.35,0Z" style="fill:#221f20"/><path d="M46,21.27l.21,0Z" style="fill:#221f20"/><path d="M56.8,21.8l.32.08Z" style="fill:#221f20"/><path d="M58.76,22.35l.27.09Z" style="fill:#221f20"/><path d="M57.46,22l.3.08Z" style="fill:#221f20"/><path d="M58.11,22.15l.29.09Z" style="fill:#221f20"/><path d="M55.16,21.46l.64.12Z" style="fill:#221f20"/><path d="M56.12,21.65l.34.07Z" style="fill:#221f20"/><path d="M48.61,21h0Z" style="fill:#221f20"/><path d="M59.39,22.56l.26.09Z" style="fill:#221f20"/><polygon points="60.02 22.78 60.02 22.78 60.02 22.78 60.02 22.78" style="fill:#221f20"/><path d="M53.1,21.17l.4,0Z" style="fill:#221f20"/><path d="M50.94,21h0Z" style="fill:#221f20"/><path d="M51.69,21.05l.42,0Z" style="fill:#221f20"/><path d="M50,21h0Z" style="fill:#221f20"/><path d="M49.3,21h0Z" style="fill:#221f20"/><path d="M52.4,21.1l.4,0Z" style="fill:#221f20"/><path d="M54.48,21.34l.43.08Z" style="fill:#221f20"/><path d="M53.8,21.25l.39.05Z" style="fill:#221f20"/><path d="M39.08,24.27,50,27.69V21H48.61l-.28,0-.4,0-.31,0-.37,0-.32,0-.35,0-.34,0-.21,0-.87.13-.18,0-.45.09-.18,0-.47.1-.15,0-.49.12-.1,0a27.51,27.51,0,0,0-2.85.85Z" style="fill:#303030"/><path d="M50.12,27.73l11-3.46L60,22.78h0l-.37-.13-.26-.09L59,22.44l-.27-.09-.36-.11-.29-.09-.35-.1-.3-.08-.34-.09-.32-.08-.34-.08-.34-.07-.32-.07-.64-.12-.25,0-.43-.08-.29,0-.39-.05-.3,0-.4,0a1.53,1.53,0,0,0-.3,0l-.4,0-.29,0-.42,0-.28,0H50v6.69Z" style="fill:#221f20"/><polygon points="40.36 77.36 40.36 77.36 40.36 77.36 40.36 77.36" style="fill:#221f20"/><polygon points="26.92 67.56 26.92 67.56 26.92 67.56 26.92 67.56" style="fill:#221f20"/><path d="M29.7,70.71h0Z" style="fill:#221f20"/><path d="M31.25,72.12Z" style="fill:#221f20"/><path d="M32.9,73.42h0Z" style="fill:#221f20"/><path d="M28.26,69.19h0Z" style="fill:#221f20"/><path d="M37.81,66.76,26.92,62.88v4.68h0c.43.56.87,1.1,1.33,1.62h0c.46.52.94,1,1.44,1.51h0c.5.48,1,1,1.55,1.41h0c.53.45,1.08.88,1.64,1.3h0a29.09,29.09,0,0,0,7.46,3.94h0l4.18-1.2Z" style="fill:#303030"/><polygon points="73.08 67.56 73.08 67.56 73.08 67.56 73.08 67.56" style="fill:#221f20"/><polygon points="59.64 77.36 59.64 77.36 59.64 77.36 59.64 77.36" style="fill:#221f20"/><path d="M70.3,70.7h0Z" style="fill:#221f20"/><path d="M71.74,69.19h0Z" style="fill:#221f20"/><path d="M67.11,73.42h0Z" style="fill:#221f20"/><path d="M68.75,72.12Z" style="fill:#221f20"/><path d="M73.08,67.56h0V62.88L62.19,66.76l-6.73,9.4,4.18,1.2h0a29.09,29.09,0,0,0,7.46-3.94h0c.56-.42,1.11-.85,1.64-1.3h0c.54-.45,1-.93,1.55-1.41h0c.5-.48,1-1,1.44-1.51h0C72.21,68.66,72.65,68.12,73.08,67.56Z" style="fill:#221f20"/><path d="M27.4,31.83l0,0Z" style="fill:#221f20"/><path d="M22.92,39.61s0-.08,0-.11S22.93,39.57,22.92,39.61Z" style="fill:#221f20"/><path d="M25.45,34.55l0,0Z" style="fill:#221f20"/><path d="M22.55,40.62l0-.07Z" style="fill:#221f20"/><path d="M23.35,38.54l.06-.13Z" style="fill:#221f20"/><path d="M24.32,36.52l.06-.11Z" style="fill:#221f20"/><path d="M22.19,41.78a1.21,1.21,0,0,1,0-.18A1.21,1.21,0,0,0,22.19,41.78Z" style="fill:#221f20"/><path d="M26.07,33.61l0,0Z" style="fill:#221f20"/><path d="M22.67,45.46l9.4-6.73L36,27.84H31.3a28.9,28.9,0,0,0-3.87,3.95l0,0c-.45.56-.88,1.14-1.3,1.74l0,0c-.2.3-.4.6-.59.9l0,0c-.38.61-.74,1.23-1.07,1.86l-.06.11c-.33.62-.63,1.25-.91,1.89l-.06.13-.39,1s0,.07,0,.11c-.12.31-.23.62-.34.94l0,.07c-.11.33-.21.65-.31,1a1.21,1.21,0,0,0,0,.18c-.1.33-.2.67-.29,1Z" style="fill:#303030"/><path d="M74.52,34.51l0,0Z" style="fill:#221f20"/><path d="M73.9,33.57l0,0Z" style="fill:#221f20"/><path d="M77.76,41.6a1.21,1.21,0,0,1,0,.18A1.21,1.21,0,0,0,77.76,41.6Z" style="fill:#221f20"/><path d="M72.57,31.79l0,0Z" style="fill:#221f20"/><path d="M77,39.5s0,.07,0,.11S77.05,39.53,77,39.5Z" style="fill:#221f20"/><path d="M75.62,36.41l.06.11Z" style="fill:#221f20"/><path d="M76.59,38.41l.06.13Z" style="fill:#221f20"/><path d="M77.42,40.55l0,.07Z" style="fill:#221f20"/><path d="M68.7,27.84H64.05l3.88,10.89,9.4,6.73.77-2.67c-.09-.34-.19-.68-.29-1a1.21,1.21,0,0,0,0-.18c-.1-.33-.2-.65-.31-1l0-.07c-.11-.32-.22-.63-.34-.94,0,0,0-.08,0-.11l-.39-1-.06-.13c-.28-.64-.58-1.27-.91-1.89l-.06-.11c-.33-.63-.69-1.25-1.07-1.86l0,0c-.19-.3-.39-.6-.59-.9l0,0c-.42-.6-.85-1.18-1.3-1.74l0,0A28.9,28.9,0,0,0,68.7,27.84Z" style="fill:#221f20"/></svg>