<svg xmlns="http://www.w3.org/2000/svg" viewBox="0 0 100 100"><title>lock</title><path d="M50,31.34V46.66h8V39.34C58,34,55.31,31.34,50,31.34Z" style="fill:none"/><path d="M42,39.34v7.32h8V31.34C44.69,31.34,42,34,42,39.34Z" style="fill:none"/><circle cx="50" cy="50" r="50" style="fill:#e8e8e8"/><path d="M50,29.34V44.66h8V37.34C58,32,55.31,29.34,50,29.34Z" style="fill:none"/><path d="M42,37.34v7.32h8V29.34C44.69,29.34,42,32,42,37.34Z" style="fill:none"/><path d="M42,37.34c0-5.31,2.69-8,8-8v-6c-8.64,0-14,5.36-14,14v7.32h6Z" style="fill:#c9c9c9"/><path d="M58,37.34v7.32h6V37.34c0-8.64-5.36-14-14-14v6C55.31,29.34,58,32,58,37.34Z" style="fill:#c1c1c1"/><path d="M48,62.66V60.11a4,4,0,0,1,2-7.45v-8H42V46H36V44.66H32a5,5,0,0,0-5,5v18a5,5,0,0,0,5,5H50v-8A2,2,0,0,1,48,62.66Z" style="fill:#b2b2b2"/><path d="M68,44.66H64V46H58V44.66H50v8a4,4,0,0,1,2,7.45v2.55a2,2,0,0,1-2,2v8H68a5,5,0,0,0,5-5v-18A5,5,0,0,0,68,44.66Z" style="fill:#a8a8a8"/><rect x="36" y="44.66" width="6" height="1.32" style="fill:#b2b2b2"/><rect x="58" y="44.66" width="6" height="1.32" style="fill:#b2b2b2"/><path d="M52,62.66V60.11a4,4,0,0,0-2-7.45v12A2,2,0,0,0,52,62.66Z" style="fill:#6d6d6d"/><path d="M46,56.66a4,4,0,0,0,2,3.45v2.55a2,2,0,0,0,2,2v-12A4,4,0,0,0,46,56.66Z" style="fill:#7f7f7f"/></svg>