<svg xmlns="http://www.w3.org/2000/svg" viewBox="0 0 100 100"><title>monster_insomnia_2017</title><circle cx="50" cy="50" r="50" style="fill:#282828"/><rect x="36.88" y="42.75" width="5.25" height="5.25" style="fill:none"/><polygon points="42.13 69 47.38 69 47.38 63.75 42.13 63.75 36.88 63.75 36.88 69 42.13 69" style="fill:#fff04b"/><path d="M47.38,37.5H42.12V32.25H36.88V37.5H31.62v5.25H26.38V48H21.12V63.75h5.26V53.25h5.24v10.5h5.26V58.5H50v-21ZM42.12,48H36.88V42.75h5.24Z" style="fill:#fff04b"/><path d="M73.62,48V42.75H68.38V37.5H63.12V32.25H57.88V37.5H50v21H63.12v5.25h5.26V53.25h5.24v10.5h5.26V48Zm-10.5,0H57.88V42.75h5.24Z" style="fill:#efd830"/><rect x="31.63" y="27" width="5.25" height="5.25" style="fill:#fff04b"/><rect x="63.13" y="27" width="5.25" height="5.25" style="fill:#efd830"/><polygon points="52.63 63.75 52.63 69 57.88 69 63.13 69 63.13 63.75 57.88 63.75 52.63 63.75" style="fill:#efd830"/></svg>