<svg xmlns="http://www.w3.org/2000/svg" viewBox="0 0 100 100"><title>multiplayer</title><circle cx="50" cy="50" r="50" style="fill:#694d87"/><path d="M78.07,63.27a6.65,6.65,0,1,0,6.65,6.65A6.65,6.65,0,0,0,78.07,63.27Z" style="fill:#0090e8"/><path d="M76.38,62.18A27.4,27.4,0,0,0,74.7,41.69l-4.25,2.46A22.54,22.54,0,0,1,72.72,54.6l-9.95-2.84a12.92,12.92,0,0,1-8.08,14L62.22,73A22.54,22.54,0,0,1,52,76.43v4.91a27.4,27.4,0,0,0,18.6-9c-.08-.26-.15-.51-.21-.78A7.92,7.92,0,0,1,76.38,62.18Z" style="fill:#0090e8"/><path d="M60.62,33.48a22.56,22.56,0,0,1,8.08,7.2L73,38.23A27.37,27.37,0,0,0,55.9,26.59a7.66,7.66,0,0,1-.57.57,7.86,7.86,0,0,1-5.23,2.06V40.8a12.89,12.89,0,0,1,8,2.84Z" style="fill:#eab634"/><path d="M44.14,26.64a27.38,27.38,0,0,0-16.9,11.7l4.25,2.45a22.49,22.49,0,0,1,7.92-7.19l2.51,10A12.87,12.87,0,0,1,50.1,40.8V29.22A7.89,7.89,0,0,1,44.14,26.64Z" style="fill:#fecd39"/><path d="M56.65,21.31a6.66,6.66,0,0,0-6.55-6.65V28A6.64,6.64,0,0,0,56.65,21.31Z" style="fill:#eab634"/><path d="M50,14.66A6.65,6.65,0,1,0,50,28h.1V14.66Z" style="fill:#fecd39"/><path d="M37.88,73l7.43-7.19a12.92,12.92,0,0,1-8.08-14L27.16,54.64a22.5,22.5,0,0,1,2.2-10.59l-4.25-2.47a27.4,27.4,0,0,0-1.55,20.59,7.44,7.44,0,0,1,.78.2,7.93,7.93,0,0,1,5.14,10,27.41,27.41,0,0,0,18.58,8.79V76.21A22.42,22.42,0,0,1,37.88,73Z" style="fill:#ca5b5a"/><path d="M21.93,63.27a6.65,6.65,0,1,0,6.65,6.65A6.65,6.65,0,0,0,21.93,63.27Z" style="fill:#ca5b5a"/></svg>