<svg xmlns="http://www.w3.org/2000/svg" viewBox="0 0 100 100"><title>pro_cyclist</title><g style="isolation:isolate"><circle cx="50" cy="50" r="50" style="fill:#74d18e"/><path d="M64.59,41.72l.06-.06Z" style="fill:none"/><path d="M58,47l.17,0Z" style="fill:none"/><path d="M64.27,42.2l0-.05Z" style="fill:none"/><path d="M65,41.36l.07,0Z" style="fill:none"/><path d="M57.22,47l.47,0Z" style="fill:none"/><path d="M35.27,41.67l.07.06Z" style="fill:none"/><path d="M35.67,42.22l-.07-.11Z" style="fill:none"/><path d="M34.89,41.38l0,0Z" style="fill:none"/><path d="M62.56,45.34a3.45,3.45,0,0,0,.28-.26A3.45,3.45,0,0,1,62.56,45.34Z" style="fill:none"/><path d="M57.21,47a9.46,9.46,0,0,1-2.06-.1A9.5,9.5,0,0,0,57.21,47Z" style="fill:none"/><path d="M64.08,42.86a3.64,3.64,0,0,1-1,2A3.61,3.61,0,0,0,64.08,42.86Z" style="fill:none"/><path d="M73.85,72.07,76,73Z" style="fill:#fff"/><path d="M61.19,60.16a.32.32,0,0,1,0,.07A.32.32,0,0,0,61.19,60.16Z" style="fill:#fff"/><path d="M78.31,74l.73.32Z" style="fill:#fff"/><path d="M61.1,61Z" style="fill:#fff"/><path d="M79.46,74.5l.1,0Z" style="fill:#fff"/><path d="M61.14,60.67v0Z" style="fill:#fff"/><path d="M61.17,60.33v0Z" style="fill:#fff"/><path d="M50,68.4h0v7.34l0,0s6.63-3.72,9.59-7.69a1.88,1.88,0,0,0,.12-.18c.16-.23.32-.45.46-.68a6.79,6.79,0,0,0,.43-.85h0s.15-1.74.29-3.36c-2.91,2.81-7.07,5.36-10.87,5.4Z" style="fill:#f4bd98"/><path d="M50,75.74V68.4c-3.81-.05-8-2.58-10.85-5.38.13,1.45.26,3,.28,3.34C41.32,70.79,49.59,75.51,50,75.74Z" style="fill:#ffd5ab"/><path d="M50,66.65V42.54h0c-1.69,0-2.27,3.15-4.22,4.11s-9.29.37-9.89-3.79a2.83,2.83,0,0,0-.19-.64l-.07-.11a2.12,2.12,0,0,0-.26-.38l-.07-.06a1.53,1.53,0,0,0-.38-.29l0,0a2.35,2.35,0,0,0-.44-.17,2.27,2.27,0,0,0-1.4.05c-2.29.91-.72,3.18-.16,5.78.45,2,.34,3.46.69,4.06a1.81,1.81,0,0,0,1.63,1,2.29,2.29,0,0,0,.61-.08,26.2,26.2,0,0,1,1.27,4.93,7.57,7.57,0,0,0,1.82,3.28S39,61,39.05,62c-.09-1-.17-1.84-.17-1.84C41.39,63.21,46,66.58,50,66.65Z" style="fill:#ffd5ab"/><path d="M65,41.36a1.85,1.85,0,0,0-.39.3l-.06.06a1.91,1.91,0,0,0-.29.43l0,.05a2.13,2.13,0,0,0-.19.66,3.61,3.61,0,0,1-1,2l-.27.24a3.45,3.45,0,0,1-.28.26A9.17,9.17,0,0,1,58.19,47L58,47c-.11,0-.22,0-.33,0l-.47,0h0a9.5,9.5,0,0,1-2.06-.1,3.87,3.87,0,0,1-1-.29c-1.93-1-2.52-4.06-4.18-4.11V66.65h0c3.94,0,8.62-3.42,11.15-6.49A7.56,7.56,0,0,0,63,56.89,24.59,24.59,0,0,1,64.29,52a2.17,2.17,0,0,0,.6.08,1.79,1.79,0,0,0,1.63-1c.35-.6.25-2,.69-4.06.57-2.6,2.13-4.87-.16-5.78a2.29,2.29,0,0,0-1.55-.07,3.12,3.12,0,0,0-.39.15Z" style="fill:#f4bd98"/><path d="M72.26,71.38,61.33,66.65l.27.12Z" style="fill:#fff"/><path d="M49.25,36.67l-.41,0Z" style="fill:#fff"/><path d="M47.68,36.55l-.5,0Z" style="fill:#fff"/><path d="M48.53,36.62l-.46,0Z" style="fill:#fff"/><path d="M51.08,36.65l-.42,0Z" style="fill:#fff"/><path d="M46.72,36.46l-.51-.05Z" style="fill:#fff"/><path d="M52.73,36.51l-.54.05Z" style="fill:#fff"/><path d="M51.85,36.59l-.49,0Z" style="fill:#fff"/><path d="M55.9,36.18l-.69.08Z" style="fill:#fff"/><path d="M54.78,36.3l-.67.07Z" style="fill:#fff"/><path d="M60.59,35.64l-.66.07Z" style="fill:#fff"/><path d="M59.5,35.77l-.77.09Z" style="fill:#fff"/><path d="M57.06,36.05l-.7.08Z" style="fill:#fff"/><path d="M58.28,35.91l-.75.09Z" style="fill:#fff"/><path d="M53.72,36.41l-.61.06Z" style="fill:#fff"/><path d="M43.38,36.1l-.49-.05Z" style="fill:#fff"/><path d="M42.18,36l-.48-.06Z" style="fill:#fff"/><path d="M44.57,36.24,44,36.18Z" style="fill:#fff"/><path d="M35.34,35.13l-.24,0Z" style="fill:#fff"/><path d="M45.66,36.35l-.51-.05Z" style="fill:#fff"/><path d="M36.33,35.26l-.21,0Z" style="fill:#fff"/><path d="M38.57,35.54l-.34,0Z" style="fill:#fff"/><path d="M39.75,35.68l-.38,0Z" style="fill:#fff"/><path d="M41,35.82l-.41,0Z" style="fill:#fff"/><path d="M37.4,35.39l-.19,0Z" style="fill:#fff"/><path d="M50,36.7l-.49,0Z" style="fill:#fff"/><path d="M34.4,35Z" style="fill:#fff"/><path d="M34.67,36.69c-.09-.53-.17-1.06-.25-1.59C34.5,35.63,34.58,36.16,34.67,36.69Z" style="fill:#fff"/><path d="M50,40.31V38.45h0c-2.06,0-10-1-15.28-1.63.11.66.22,1.32.31,2,0,0,11,1.52,15,1.52Z" style="fill:#ffd5ab"/><path d="M64.92,36.87c-5.28.66-12.87,1.57-14.92,1.58v1.86c3.61,0,12.92-1.25,14.65-1.49.15-1.24.36-2.5.56-3.75h0C65.11,35.66,65,36.27,64.92,36.87Z" style="fill:#f4bd98"/><path d="M50,36.7h0l.45,0Z" style="fill:#fff"/><path d="M50,36.7h0Z" style="fill:#fff"/><path d="M51.93,11.69c.31,0,.61.1.92.17C52.54,11.79,52.24,11.73,51.93,11.69Z" style="fill:#f63"/><path d="M51.93,11.69c.31,0,.61.1.92.17C52.54,11.79,52.24,11.73,51.93,11.69Z" style="fill:#ccc;mix-blend-mode:multiply"/><path d="M53.23,12c.27.06.54.14.8.21C53.77,12.09,53.5,12,53.23,12Z" style="fill:#f63"/><path d="M53.23,12c.27.06.54.14.8.21C53.77,12.09,53.5,12,53.23,12Z" style="fill:#ccc;mix-blend-mode:multiply"/><path d="M47.42,11.81l.26-.05Z" style="fill:#f63"/><path d="M47.42,11.81l.26-.05Z" style="fill:#ccc;mix-blend-mode:multiply"/><path d="M36.89,16.69q.61-.42,1.29-.84Q37.5,16.27,36.89,16.69Z" style="fill:#f63"/><path d="M36.89,16.69q.61-.42,1.29-.84Q37.5,16.27,36.89,16.69Z" style="fill:#ccc;mix-blend-mode:multiply"/><path d="M43.91,12.89l.18-.08Z" style="fill:#f63"/><path d="M43.91,12.89l.18-.08Z" style="fill:#ccc;mix-blend-mode:multiply"/><path d="M54.81,12.41l.41.14Z" style="fill:#f63"/><path d="M54.81,12.41l.41.14Z" style="fill:#ccc;mix-blend-mode:multiply"/><path d="M44.86,12.53l.19-.07Z" style="fill:#f63"/><path d="M44.86,12.53l.19-.07Z" style="fill:#ccc;mix-blend-mode:multiply"/><path d="M38.19,15.84c.45-.28.91-.55,1.38-.82C39.1,15.29,38.64,15.56,38.19,15.84Z" style="fill:#f63"/><path d="M38.19,15.84c.45-.28.91-.55,1.38-.82C39.1,15.29,38.64,15.56,38.19,15.84Z" style="fill:#ccc;mix-blend-mode:multiply"/><path d="M55.94,12.82l.1,0Z" style="fill:#f63"/><path d="M55.94,12.82l.1,0Z" style="fill:#ccc;mix-blend-mode:multiply"/><path d="M49.25,23.56H50v-12a12.1,12.1,0,0,0-1.79.14V22.52A1,1,0,0,0,49.25,23.56Z" style="fill:#f63"/><path d="M49.25,23.56H50v-12a12.1,12.1,0,0,0-1.79.14V22.52A1,1,0,0,0,49.25,23.56Z" style="fill:#ccc;mix-blend-mode:multiply"/><path d="M57.88,23.49h1.5a1,1,0,0,0,1-1V15a35.37,35.37,0,0,0-3.58-1.82v9.26A1,1,0,0,0,57.88,23.49Z" style="fill:#f63"/><path d="M57.88,23.49h1.5a1,1,0,0,0,1-1V15a35.37,35.37,0,0,0-3.58-1.82v9.26A1,1,0,0,0,57.88,23.49Z" style="fill:#b2b2b2;mix-blend-mode:multiply"/><path d="M50.75,23.56a1,1,0,0,0,1-1V11.66a12.52,12.52,0,0,0-1.7-.13H50v12Z" style="fill:#f63"/><path d="M50.75,23.56a1,1,0,0,0,1-1V11.66a12.52,12.52,0,0,0-1.7-.13H50v12Z" style="fill:#b2b2b2;mix-blend-mode:multiply"/><path d="M60.54,15.08c.42.24.83.49,1.23.74C61.37,15.57,61,15.32,60.54,15.08Z" style="fill:#f63"/><path d="M60.54,15.08c.42.24.83.49,1.23.74C61.37,15.57,61,15.32,60.54,15.08Z" style="fill:#ccc;mix-blend-mode:multiply"/><path d="M61.89,15.89c.42.27.83.53,1.22.8C62.72,16.42,62.31,16.16,61.89,15.89Z" style="fill:#f63"/><path d="M61.89,15.89c.42.27.83.53,1.22.8C62.72,16.42,62.31,16.16,61.89,15.89Z" style="fill:#ccc;mix-blend-mode:multiply"/><path d="M31.48,32.37a66.74,66.74,0,0,1,1.09-9,10.07,10.07,0,0,1,4.32-6.66,10.07,10.07,0,0,0-4.32,6.66,66.74,66.74,0,0,0-1.09,9,2.54,2.54,0,0,0,2.22,2.56A2.55,2.55,0,0,1,31.48,32.37Z" style="fill:#f63"/><path d="M31.48,32.37a66.74,66.74,0,0,1,1.09-9,10.07,10.07,0,0,1,4.32-6.66,10.07,10.07,0,0,0-4.32,6.66,66.74,66.74,0,0,0-1.09,9,2.54,2.54,0,0,0,2.22,2.56A2.55,2.55,0,0,1,31.48,32.37Z" style="fill:#ccc;mix-blend-mode:multiply"/><path d="M40.63,23.49h1.49a1,1,0,0,0,1.05-1V13.19A35.5,35.5,0,0,0,39.58,15v7.44A1,1,0,0,0,40.63,23.49Z" style="fill:#f63"/><path d="M40.63,23.49h1.49a1,1,0,0,0,1.05-1V13.19A35.5,35.5,0,0,0,39.58,15v7.44A1,1,0,0,0,40.63,23.49Z" style="fill:#ccc;mix-blend-mode:multiply"/><path d="M42.88,36.05h0l.49.05h0Z" style="fill:#f63"/><path d="M42.88,36.05h0l.49.05h0Z" style="fill:#ccc;mix-blend-mode:multiply"/><path d="M44,36.18h0l.54.06h0Z" style="fill:#f63"/><path d="M44,36.18h0l.54.06h0Z" style="fill:#ccc;mix-blend-mode:multiply"/><path d="M38.21,35.49h0l.34,0h0Z" style="fill:#f63"/><path d="M38.21,35.49h0l.34,0h0Z" style="fill:#ccc;mix-blend-mode:multiply"/><path d="M41.69,35.91h0l.48.06h0Z" style="fill:#f63"/><path d="M41.69,35.91h0l.48.06h0Z" style="fill:#ccc;mix-blend-mode:multiply"/><path d="M45.14,36.3h0l.51.05h0Z" style="fill:#f63"/><path d="M45.14,36.3h0l.51.05h0Z" style="fill:#ccc;mix-blend-mode:multiply"/><path d="M46.21,36.41h0l.51.05h0Z" style="fill:#f63"/><path d="M46.21,36.41h0l.51.05h0Z" style="fill:#ccc;mix-blend-mode:multiply"/><path d="M36.1,35.23h0l.21,0h0Z" style="fill:#f63"/><path d="M36.1,35.23h0l.21,0h0Z" style="fill:#ccc;mix-blend-mode:multiply"/><path d="M40.53,35.77h0l.41,0h0Z" style="fill:#f63"/><path d="M40.53,35.77h0l.41,0h0Z" style="fill:#ccc;mix-blend-mode:multiply"/><path d="M37.19,35.37h0l.19,0h0Z" style="fill:#f63"/><path d="M37.19,35.37h0l.19,0h0Z" style="fill:#ccc;mix-blend-mode:multiply"/><path d="M47.18,36.51h0l.5,0h0Z" style="fill:#f63"/><path d="M47.18,36.51h0l.5,0h0Z" style="fill:#ccc;mix-blend-mode:multiply"/><path d="M39.35,35.63h0l.38,0h0Z" style="fill:#f63"/><path d="M39.35,35.63h0l.38,0h0Z" style="fill:#ccc;mix-blend-mode:multiply"/><path d="M48.84,36.65h0l.41,0h0Z" style="fill:#f63"/><path d="M48.84,36.65h0l.41,0h0Z" style="fill:#ccc;mix-blend-mode:multiply"/><path d="M48.07,36.59h0l.46,0h0Z" style="fill:#f63"/><path d="M48.07,36.59h0l.46,0h0Z" style="fill:#ccc;mix-blend-mode:multiply"/><path d="M49.48,36.68l.49,0-.49,0Z" style="fill:#f63"/><path d="M49.48,36.68l.49,0-.49,0Z" style="fill:#ccc;mix-blend-mode:multiply"/><path d="M48.21,11.66l-.53.1.53-.09Z" style="fill:#f63"/><path d="M51.79,11.66h0l.14,0Z" style="fill:#f63"/><path d="M52.85,11.86l.38.09Z" style="fill:#f63"/><path d="M54,12.16l.78.25Z" style="fill:#f63"/><path d="M45.05,12.46a20,20,0,0,1,2.37-.65A20,20,0,0,0,45.05,12.46Z" style="fill:#f63"/><path d="M39.58,15h0Z" style="fill:#f63"/><path d="M38.18,15.85h0Z" style="fill:#f63"/><path d="M43.17,13.19h0l.74-.3C43.66,13,43.41,13.08,43.17,13.19Z" style="fill:#f63"/><path d="M44.09,12.81l.77-.28Z" style="fill:#f63"/><path d="M55.22,12.55l.72.27Z" style="fill:#f63"/><path d="M66.29,34.93l-1.08.14h0l1.09-.14a2.55,2.55,0,0,0,2.22-2.56,59.89,59.89,0,0,0-.9-7.92,59.89,59.89,0,0,1,.9,7.92A2.56,2.56,0,0,1,66.29,34.93Z" style="fill:#f63"/><path d="M67.43,23.35a10.1,10.1,0,0,0-3.5-6.05A10.1,10.1,0,0,1,67.43,23.35Z" style="fill:#f63"/><path d="M60.42,15h0l.12.07Z" style="fill:#f63"/><path d="M61.77,15.82l.12.07Z" style="fill:#f63"/><path d="M56.84,13.18l-.8-.32.8.33Z" style="fill:#f63"/><polygon points="65.2 35.06 65.2 35.06 65.2 35.06 65.2 35.06 65.2 35.06" style="fill:#f63"/><path d="M52.18,36.56h0l.54-.05h0Z" style="fill:#f63"/><path d="M50.45,36.68h0l-.45,0h0Z" style="fill:#f63"/><path d="M50.66,36.67h0l.42,0h0Z" style="fill:#f63"/><path d="M54.1,36.37h0l.67-.07h0Z" style="fill:#f63"/><path d="M50,36.7h0Z" style="fill:#f63"/><path d="M53.11,36.47h0l.61-.06h0Z" style="fill:#f63"/><path d="M55.2,36.26h0l.69-.08h0Z" style="fill:#f63"/><path d="M51.35,36.63h0l.49,0h0Z" style="fill:#f63"/><path d="M57.52,36h0l.75-.09h0Z" style="fill:#f63"/><path d="M56.35,36.13h0l.7-.08h0Z" style="fill:#f63"/><path d="M58.72,35.86h0l.77-.09h0Z" style="fill:#f63"/><path d="M59.92,35.72h0l.66-.07.09,0Z" style="fill:#f63"/><path d="M61.13,35.57l.2,0Z" style="fill:#f63"/><path d="M50,30.78V23.56h-.75a1,1,0,0,1-1-1V11.67l-.53.09-.26.05a20,20,0,0,0-2.37.65l-.19.07-.77.28-.18.08-.74.3v9.26a1,1,0,0,1-1.05,1H40.63a1,1,0,0,1-1.05-1V15h0c-.47.27-.93.54-1.38.82h0q-.68.42-1.29.84a10.07,10.07,0,0,0-4.32,6.66,66.74,66.74,0,0,0-1.09,9,2.55,2.55,0,0,0,2.22,2.56l.7.09A25.29,25.29,0,0,1,34,30.78Z" style="fill:#f63"/><path d="M50.75,23.56H50v7.22H65.73c-.09,1.4-.3,2.84-.52,4.29l1.08-.14a2.56,2.56,0,0,0,2.23-2.56,59.89,59.89,0,0,0-.9-7.92c-.06-.38-.13-.75-.19-1.1a10.1,10.1,0,0,0-3.5-6.05,9.68,9.68,0,0,0-.82-.61c-.39-.27-.8-.53-1.22-.8l-.12-.07c-.4-.25-.81-.5-1.23-.74L60.42,15v7.44a1,1,0,0,1-1,1h-1.5a1,1,0,0,1-1-1V13.19l-.8-.33-.1,0-.72-.27-.41-.14L54,12.16c-.26-.07-.53-.15-.8-.21l-.38-.09c-.31-.07-.61-.13-.92-.17l-.14,0V22.52A1,1,0,0,1,50.75,23.56Z" style="fill:#f2542a"/><path d="M50.66,36.67l.42,0,.27,0,.5,0,.33,0,.55-.05.38,0,.61-.06.38,0,.69-.07.41,0,.71-.08.44,0,.73-.08.44,0,.79-.09.41,0,.83-.1.37,0,.76-.1.45,0,.2,0,3.87-.48h0c.22-1.45.43-2.89.52-4.29H50V36.7l.45,0Z" style="fill:#f2542a"/><path d="M35.1,35.1l.24,0,.76.1.24,0,.85.11.21,0,.81.1.37,0,.77.09.41,0,.77.09.45.06.71.08.51.06.68.08.52.06.62.07.56.06.56.06.53.05.54.06.52.05.45,0,.51,0,.38,0,.46,0,.31,0,.42,0h.22l.49,0h0V30.78H34A25.29,25.29,0,0,0,34.4,35h.06Z" style="fill:#f63"/><path d="M34.4,35l0,.08,0-.08Z" style="fill:#ccc"/><path d="M34.69,36.82h0l0-.13S34.68,36.78,34.69,36.82Z" style="fill:#ccc"/><path d="M50,38.45V36.7h0l-.49,0h-.23l-.41,0-.31,0-.46,0-.39,0-.5,0-.46,0-.51-.05-.55-.06-.51-.05-.58-.06L44,36.18l-.65-.08-.49-.05L42.18,36l-.48-.06L41,35.82l-.41,0-.8-.09-.38,0-.8-.09-.34,0-.83-.1-.19,0-.88-.11-.21,0-.6-.07-.18,0-.24,0L34.46,35H34.4l0,.08c.08.53.16,1.06.25,1.59l0,.13C40,37.49,47.91,38.45,50,38.45Z" style="fill:#f4cba6"/><path d="M65.2,35.07l-4.61.57-.66.07-.43.06-.77.09-.45,0-.75.09-.47,0-.7.08-.46,0-.69.08-.43,0-.67.07-.39,0-.61.06-.38,0-.54.05-.34,0-.49,0-.28,0-.42,0h-.21l-.45,0v1.75c2,0,9.64-.92,14.92-1.58C65,36.27,65.11,35.66,65.2,35.07Z" style="fill:#ddac8a"/><path d="M42.2,36h0l.71.08h0Z" style="fill:#ccc"/><path d="M38.58,35.54h0l.8.09h0Z" style="fill:#ccc"/><path d="M49.26,36.67h0Z" style="fill:#ccc"/><path d="M39.76,35.68h0l.8.09h0Z" style="fill:#ccc"/><path d="M36.34,35.26h0l.88.11h0Z" style="fill:#ccc"/><path d="M37.4,35.39h0l.83.1h0Z" style="fill:#ccc"/><path d="M46.73,36.46h0l.46,0h0Z" style="fill:#ccc"/><path d="M45.67,36.35h0l.55.06h0Z" style="fill:#ccc"/><path d="M47.69,36.55h0l.39,0h0Z" style="fill:#ccc"/><path d="M48.53,36.62h0l.31,0h0Z" style="fill:#ccc"/><path d="M35.52,35.16l.6.07h0Z" style="fill:#ccc"/><path d="M43.4,36.11h0l.65.08h0Z" style="fill:#ccc"/><path d="M44.58,36.24h0l.58.06h0Z" style="fill:#ccc"/><path d="M41,35.83h0l.74.09h0Z" style="fill:#ccc"/><path d="M54.79,36.3h0l.43,0h0Z" style="fill:#ccc"/><path d="M58.31,35.91h0l.45,0h0Z" style="fill:#ccc"/><path d="M61.13,35.57l-.45,0-.09,0,4.61-.57h0l-3.87.48Z" style="fill:#ccc"/><path d="M53.72,36.41h0l.39,0h0Z" style="fill:#ccc"/><path d="M51.08,36.65h0l.28,0h0Z" style="fill:#ccc"/><path d="M59.55,35.76h0l.43-.06h0Z" style="fill:#ccc"/><path d="M57.08,36.05h0l.47,0h0Z" style="fill:#ccc"/><path d="M55.91,36.18h0l.46,0h0Z" style="fill:#ccc"/><path d="M52.73,36.51h0l.38,0h0Z" style="fill:#ccc"/><path d="M50.45,36.68Z" style="fill:#ccc"/><path d="M51.85,36.59h0l.34,0h0Z" style="fill:#ccc"/><path d="M52.73,36.51l.38,0Z" style="fill:#ccc"/><path d="M47.69,36.55l.38,0Z" style="fill:#ccc"/><path d="M54.79,36.3l.41,0Z" style="fill:#ccc"/><path d="M42.2,36l.68.08Z" style="fill:#ccc"/><path d="M45.67,36.35l.54.06Z" style="fill:#ccc"/><path d="M51.85,36.59l.33,0Z" style="fill:#ccc"/><path d="M61.33,35.55l3.87-.48h0Z" style="fill:#ccc"/><path d="M46.73,36.46l.45,0Z" style="fill:#ccc"/><path d="M48.53,36.62l.31,0Z" style="fill:#ccc"/><path d="M60.68,35.62l.45,0Z" style="fill:#ccc"/><path d="M53.72,36.41l.38,0Z" style="fill:#ccc"/><path d="M44.58,36.24l.56.06Z" style="fill:#ccc"/><path d="M43.4,36.11l.62.07Z" style="fill:#ccc"/><path d="M37.4,35.39l.81.1Z" style="fill:#ccc"/><path d="M50.45,36.68h0Z" style="fill:#ccc"/><path d="M38.58,35.54l.77.09Z" style="fill:#ccc"/><path d="M55.91,36.18l.44,0Z" style="fill:#ccc"/><path d="M36.34,35.26l.85.11Z" style="fill:#ccc"/><path d="M57.08,36.05l.44,0Z" style="fill:#ccc"/><path d="M59.55,35.76l.37,0Z" style="fill:#ccc"/><path d="M35.34,35.13l.18,0,.58.07Z" style="fill:#ccc"/><path d="M41,35.83l.71.08Z" style="fill:#ccc"/><path d="M58.31,35.91l.41,0Z" style="fill:#ccc"/><path d="M35.1,35.1,34.46,35Z" style="fill:#ccc"/><path d="M51.08,36.65l.27,0Z" style="fill:#ccc"/><path d="M49.26,36.67h0Z" style="fill:#ccc"/><path d="M39.76,35.68l.77.09Z" style="fill:#ccc"/><path d="M34.89,41.38a1.53,1.53,0,0,1,.38.29l.07.06a1.81,1.81,0,0,1,.26.38l.07.11a2.83,2.83,0,0,1,.19.64c.6,4.16,7.93,4.76,9.89,3.79s2.53-4.11,4.22-4.11h0V40.31h0c-4,0-15-1.52-15-1.52a.51.51,0,0,0-.43.12.57.57,0,0,0-.19.42v1.84l0,0a2.35,2.35,0,0,1,.44.17Z" style="fill:#205080"/><path d="M50,40.31v2.23c1.66.05,2.25,3.15,4.18,4.11a3.87,3.87,0,0,0,1,.29,9.46,9.46,0,0,0,2.06.1h0l.47,0c.11,0,.22,0,.33,0l.17,0a9.17,9.17,0,0,0,4.37-1.61,3.45,3.45,0,0,0,.28-.26l.27-.24a3.64,3.64,0,0,0,1-2,2.34,2.34,0,0,1,.19-.66l0-.05a2,2,0,0,1,.16-.29l.13-.14.06-.06a1.85,1.85,0,0,1,.39-.3l.07,0a2.62,2.62,0,0,1,.39-.15l0,0V39.33a.56.56,0,0,0-.18-.42.52.52,0,0,0-.43-.12l-.29,0v0S54,40.3,50,40.31Z" style="fill:#1b4568"/><path d="M34.42,41.19a2.35,2.35,0,0,1,.44.17A2.35,2.35,0,0,0,34.42,41.19Z" style="fill:#205080"/><path d="M57.21,47h0Z" style="fill:#205080"/><path d="M64.08,42.86a2.13,2.13,0,0,1,.19-.66A2.34,2.34,0,0,0,64.08,42.86Z" style="fill:#205080"/><path d="M58.19,47a9.17,9.17,0,0,0,4.37-1.61A9.17,9.17,0,0,1,58.19,47Z" style="fill:#205080"/><path d="M35.34,41.73a2.12,2.12,0,0,1,.26.38A1.81,1.81,0,0,0,35.34,41.73Z" style="fill:#205080"/><path d="M64.46,41.86a2,2,0,0,0-.16.29,1.91,1.91,0,0,1,.29-.43Z" style="fill:#205080"/><path d="M50,42.54h0Z" style="fill:#205080"/><path d="M64.65,41.66a1.85,1.85,0,0,1,.39-.3A1.85,1.85,0,0,0,64.65,41.66Z" style="fill:#205080"/><path d="M35.27,41.67a1.53,1.53,0,0,0-.38-.29A1.53,1.53,0,0,1,35.27,41.67Z" style="fill:#205080"/><path d="M65.5,41.17a2.62,2.62,0,0,0-.39.15A3.12,3.12,0,0,1,65.5,41.17Z" style="fill:#205080"/><path d="M54.18,46.65a3.87,3.87,0,0,0,1,.29,3.87,3.87,0,0,1-1-.29c-1.93-1-2.52-4.06-4.18-4.11h0C51.66,42.59,52.25,45.69,54.18,46.65Z" style="fill:#205080"/><path d="M63.11,44.84l-.27.24Z" style="fill:#205080"/><path d="M57.69,47c.11,0,.22,0,.33,0C57.91,47,57.8,47,57.69,47Z" style="fill:#205080"/><path d="M35.86,42.86a2.83,2.83,0,0,0-.19-.64A2.83,2.83,0,0,1,35.86,42.86Z" style="fill:#205080"/><path d="M50,40.31c4,0,14.65-1.47,14.65-1.47v0c-1.73.24-11,1.48-14.65,1.49Z" style="fill:#205080"/><path d="M50,40.31h0Z" style="fill:#205080"/><path d="M61.18,60.23a.38.38,0,0,1,0,.1A.34.34,0,0,0,61.18,60.23Z" style="fill:#ccc;mix-blend-mode:multiply"/><path d="M61.16,60.41c0,.08,0,.16,0,.26C61.15,60.57,61.16,60.49,61.16,60.41Z" style="fill:#ccc;mix-blend-mode:multiply"/><path d="M60.93,63c.06-.72.13-1.43.17-2,0,.53-.11,1.24-.17,2Z" style="fill:#ccc;mix-blend-mode:multiply"/><path d="M39.15,63h0c0-.35-.07-.69-.1-1C39.08,62.33,39.11,62.67,39.15,63Z" style="fill:#ccc;mix-blend-mode:multiply"/><path d="M61.14,60.69c0,.1,0,.22,0,.35C61.12,60.91,61.13,60.79,61.14,60.69Z" style="fill:#ccc;mix-blend-mode:multiply"/><path d="M50,66.65h0V68.4h.06c3.8,0,8-2.59,10.87-5.4.06-.72.13-1.43.17-2h0c0-.13,0-.25,0-.35v0c0-.1,0-.18,0-.26v-.08a.38.38,0,0,0,0-.1.32.32,0,0,0,0-.07C58.66,63.23,54,66.61,50,66.65Z" style="fill:#fff"/><path d="M50,66.65h0V68.4h.06c3.8,0,8-2.59,10.87-5.4.06-.72.13-1.43.17-2h0c0-.13,0-.25,0-.35v0c0-.1,0-.18,0-.26v-.08a.38.38,0,0,0,0-.1.32.32,0,0,0,0-.07C58.66,63.23,54,66.61,50,66.65Z" style="fill:#ddac8a"/><path d="M50,66.65c-4-.07-8.61-3.44-11.12-6.48,0,0,.08.81.17,1.84,0,.32.07.66.1,1,2.89,2.8,7,5.33,10.85,5.38Z" style="fill:#fff"/><path d="M50,66.65c-4-.07-8.61-3.44-11.12-6.48,0,0,.08.81.17,1.84,0,.32.07.66.1,1,2.89,2.8,7,5.33,10.85,5.38Z" style="fill:#f4cba6"/><path d="M76,73l2.31,1Z" style="fill:#fecd39"/><path d="M72.26,71.38l1.59.69Z" style="fill:#fecd39"/><path d="M79.56,74.54l.44.19Z" style="fill:#fecd39"/><path d="M79,74.32l.42.18Z" style="fill:#fecd39"/><path d="M60.21,67.21a6.79,6.79,0,0,0,.43-.85A6.79,6.79,0,0,1,60.21,67.21Z" style="fill:#fecd39"/><path d="M59.63,68.07a1.88,1.88,0,0,0,.12-.18A1.88,1.88,0,0,1,59.63,68.07Z" style="fill:#fecd39"/><path d="M37.72,67.1l1.71-.74L20,74.81A39.6,39.6,0,0,0,50,88.47h0V80.75C49.3,80.19,38.84,71.73,37.72,67.1Z" style="fill:#fecd39"/><path d="M80,74.73l-.44-.19-.1,0L79,74.32,78.31,74,76,73l-2.15-.93-1.59-.69L61.6,66.77l.76.33C61.19,71.89,50,80.78,50,80.78l0,0v7.72A39.58,39.58,0,0,0,80,74.73Z" style="fill:#eab634"/><path d="M60.65,66.36h0l.69.29Z" style="fill:#ccc;mix-blend-mode:multiply"/><path d="M60.64,66.36l1,.41-.27-.12-.69-.29Z" style="fill:#fff"/><path d="M60.64,66.36l1,.41-.27-.12-.69-.29Z" style="fill:#ccc;mix-blend-mode:multiply"/><path d="M59.75,67.89c.16-.23.32-.45.46-.68C60.07,67.44,59.91,67.66,59.75,67.89Z" style="fill:#fff"/><path d="M59.75,67.89c.16-.23.32-.45.46-.68C60.07,67.44,59.91,67.66,59.75,67.89Z" style="fill:#ccc;mix-blend-mode:multiply"/><path d="M59.63,68.07c-3,4-9.59,7.69-9.59,7.69S56.67,72,59.63,68.07Z" style="fill:#fff"/><path d="M59.63,68.07c-3,4-9.59,7.69-9.59,7.69S56.67,72,59.63,68.07Z" style="fill:#ccc;mix-blend-mode:multiply"/><path d="M50,80.75v-5c-.41-.23-8.68-4.95-10.57-9.38l-1.71.74C38.84,71.73,49.3,80.19,50,80.75Z" style="fill:#fecd39"/><path d="M50,80.75v-5c-.41-.23-8.68-4.95-10.57-9.38l-1.71.74C38.84,71.73,49.3,80.19,50,80.75Z" style="fill:#ccc;mix-blend-mode:multiply"/><path d="M60.64,66.36a6.79,6.79,0,0,1-.43.85c-.14.23-.3.45-.46.68a1.88,1.88,0,0,1-.12.18c-3,4-9.59,7.69-9.59,7.69l0,0v5l0,0S61.19,71.89,62.36,67.1l-.76-.33-1-.41Z" style="fill:#fecd39"/><path d="M60.64,66.36a6.79,6.79,0,0,1-.43.85c-.14.23-.3.45-.46.68a1.88,1.88,0,0,1-.12.18c-3,4-9.59,7.69-9.59,7.69l0,0v5l0,0S61.19,71.89,62.36,67.1l-.76-.33-1-.41Z" style="fill:#b5b5b5;mix-blend-mode:multiply"/></g></svg>