<svg xmlns="http://www.w3.org/2000/svg" viewBox="0 0 100 100"><title>run_forest_run</title><circle cx="50" cy="50" r="50" style="fill:#00d346"/><path d="M37.65,40.68c.13-.1.28-.17.42-.26v0C37.93,40.49,37.78,40.58,37.65,40.68Z" style="fill:none"/><path d="M54.46,45.91a9.71,9.71,0,0,0-.15-2.19.88.88,0,0,1,0-.28q-1.19-.73-2.31-1.53a16.29,16.29,0,0,1-.69,2.45C52.34,44.89,53.4,45.41,54.46,45.91Z" style="fill:#0d5e82"/><path d="M56.1,46.66c.95.44,1.9.86,2.86,1.27a4.19,4.19,0,0,0-.43-1.86.83.83,0,0,1-.1-.34q-1.17-.57-2.28-1.2A10.4,10.4,0,0,1,56.1,46.66Z" style="fill:#0d5e82"/><path d="M66.12,48.72h0l-.92-.29A8,8,0,0,1,65.37,50,1.18,1.18,0,0,0,66.12,48.72Z" style="fill:#0d6799"/><path d="M39.67,39.17c.58-.66,1.44-.55,2.48.11S44,40.41,45,41a11.25,11.25,0,0,0,1.57-3.39c-1.81-1.63-3.53-3.36-5.17-5.16-1.41-.56-3.79,3.66-3.44,7.22A4.88,4.88,0,0,1,39.67,39.17Z" style="fill:#0d6799"/><path d="M39.3,39.79a5.89,5.89,0,0,0-.58.24,6,6,0,0,1,.59-.23Z" style="fill:#0d6799"/><path d="M60.65,48.65l2,.83c.27.1.62.24,1,.35a5.44,5.44,0,0,0-.19-1.37.91.91,0,0,1,0-.59c-1-.36-2-.75-3-1.16A7.62,7.62,0,0,1,60.65,48.65Z" style="fill:#0d5e82"/><path d="M47,42.1c.91.51,1.84,1,2.77,1.49a16,16,0,0,0,.67-2.74l0,0q-1.29-1-2.52-2A14.22,14.22,0,0,1,47,40.91Z" style="fill:#0d5e82"/><path d="M38.07,40.4v0c.16-.1.32-.22.48-.3C38.39,40.2,38.23,40.3,38.07,40.4Z" style="fill:#0d6799"/><path d="M47,40.91c-.16.29-.34.58-.54.89l.54.3Z" style="fill:#0d6799"/><path d="M42.15,39.28c-1-.66-1.9-.77-2.48-.11a5,5,0,0,1,.67,0l.13.28a7.21,7.21,0,0,0-1.17.34h0A8.19,8.19,0,0,1,42.15,39.28Z" style="fill:#0d6799"/><path d="M26.48,56.78c3.56-.32,7.05-.92,10.61-1.12A42.48,42.48,0,0,1,47,56.3V50.89l-.48-.16C44.61,49.48,42.71,48.2,40.8,47l-2.46-5.69a4.84,4.84,0,0,1-.27-.84c-.14.09-.29.16-.42.26-.69.56-1.27,1.27-2,1.86-11,9.05-13.84-4.77-17.61-2.72a29.86,29.86,0,0,0-3.2,15.74l.78.23A27.06,27.06,0,0,0,26.48,56.78Z" style="fill:#1b7ec1"/><path d="M15.06,57.6c-.07-.55-.12-1.09-.17-1.62C14.94,56.51,15,57.05,15.06,57.6Z" style="fill:#1b7ec1"/><path d="M66.14,48.73Z" style="fill:#1b7ec1"/><path d="M45.19,43.5a1.5,1.5,0,0,1,0,.22,1.57,1.57,0,1,1-2.35-1.36L42,41.93a9.44,9.44,0,0,1-2.67-2.13,6,6,0,0,0-.59.23l-.17.09c-.16.08-.32.2-.48.3a4.84,4.84,0,0,0,.27.84L40.8,47c1.91,1.25,3.81,2.53,5.73,3.78l.48.16V44.38Z" style="fill:#1b7ec1"/><path d="M82.59,53.57,81.92,52l.9,0c-5.85-.22-11.55-.91-16.68-3.29h0A1.18,1.18,0,0,1,65.37,50a8.69,8.69,0,0,1-.15,1.61l-.12.53a1.53,1.53,0,0,1,.33.94A1.6,1.6,0,0,1,65,54.16a1.57,1.57,0,0,1-1.11.47l-.16,0a1.57,1.57,0,0,1-1.4-1.56,1.54,1.54,0,0,1,1-1.45l.15,0a6.71,6.71,0,0,0,.2-1.73c-.37-.11-.72-.25-1-.35l-2-.83a7.55,7.55,0,0,1-.16,1.18,1.54,1.54,0,0,1,.39,1s0,.09,0,.13a1.56,1.56,0,0,1-1.54,1.45,1.58,1.58,0,0,1-1.57-1.58,1.57,1.57,0,0,1,1.07-1.46A6.06,6.06,0,0,0,59,47.93c-1-.41-1.91-.83-2.86-1.27a8.09,8.09,0,0,1-.24,1.19,1.62,1.62,0,0,1,.26.87s0,.07,0,.1a1.56,1.56,0,0,1-3.12-.1,1.53,1.53,0,0,1,.53-1.16,1.5,1.5,0,0,1,.76-.36,6.46,6.46,0,0,0,.18-1.29c-1.06-.5-2.12-1-3.16-1.55a9,9,0,0,1-.67,1.36,1.44,1.44,0,0,1,.08.46h0a1.57,1.57,0,0,1-1.57,1.54,1.55,1.55,0,0,1-1.56-1.55,1.58,1.58,0,0,1,.6-1.23,1.52,1.52,0,0,1,1-.35l.17,0a6.46,6.46,0,0,0,.47-1c-.93-.49-1.86-1-2.77-1.49V56.3c1.21.22,2.42.49,3.63.83,8.78,2,18,2.95,26.86.79L79,57.54c1-.24,3.19-.8,3.79-1.71C83.21,55.21,82.84,54.17,82.59,53.57Z" style="fill:#1771a3"/><path d="M45.19,43.5l1.82.88V42.1l-.54-.3a12.29,12.29,0,0,1-1.29,1.61A.28.28,0,0,1,45.19,43.5Z" style="fill:#1b7ec1"/><path d="M42,41.93l.88.43a1.6,1.6,0,0,1,.78-.21,2.2,2.2,0,0,1,.36,0A10.77,10.77,0,0,0,45,41c-.95-.55-1.89-1.11-2.83-1.68a8.19,8.19,0,0,0-2.84.52A9.44,9.44,0,0,0,42,41.93Z" style="fill:#1b7ec1"/><path d="M14.85,55.55c0,.14,0,.29,0,.43,0-.15,0-.28,0-.42Z" style="fill:#0d6799"/><path d="M78.78,64.22c-.32.11-.64.22-1,.3C78.14,64.44,78.46,64.33,78.78,64.22Z" style="fill:#0d6799"/><path d="M47,58.24V56.3a42.48,42.48,0,0,0-9.92-.64c-3.56.2-7.05.8-10.61,1.12a27.06,27.06,0,0,1-10.84-1l-.78-.23c0,.14,0,.27,0,.42,0,.53.1,1.07.17,1.62C26.38,61.15,33.66,55.62,47,58.24Z" style="fill:#0d6799"/><path d="M79.71,63.83c-.24.11-.49.23-.74.32A6.88,6.88,0,0,0,79.71,63.83Z" style="fill:#0d6799"/><path d="M82.59,53.57c.25.6.62,1.64.21,2.26-.6.91-2.8,1.47-3.79,1.71l-1.51.38c-8.84,2.16-18.08,1.23-26.86-.79-1.21-.34-2.42-.61-3.63-.83v1.94c1,.2,2.07.44,3.16.74,9.66,2.22,19,3,27.78.78,3.84-.93,8.54-1.81,6.38-6.92a4.3,4.3,0,0,1,.59.52A5.44,5.44,0,0,0,82.82,52l-.9,0Z" style="fill:#0d5e82"/><path d="M78.78,64.22l.19-.07Z" style="fill:#fff"/><path d="M79.71,63.83c4.65-2.17,8.13-7.51,5.21-10.47C87.69,56.33,84.29,61.66,79.71,63.83Z" style="fill:#fff"/><path d="M15.06,57.6a6.38,6.38,0,0,0-.62,5.76c1.87,2,5.38,2.67,9.39,3-4-.28-7.39-1.06-9.26-3A6.19,6.19,0,0,1,15.06,57.6Z" style="fill:#fff"/><path d="M15.06,57.6a6.19,6.19,0,0,0-.49,5.69c1.87,2,5.25,2.74,9.26,3,7,.49,13.62-.8,20.69-.67.84,0,1.66.06,2.49.1v-7.5C33.66,55.62,26.38,61.15,15.06,57.6Z" style="fill:#fff"/><path d="M79.71,63.83c4.58-2.17,8-7.5,5.21-10.47a4.3,4.3,0,0,0-.59-.52c2.16,5.11-2.54,6-6.38,6.92C69.18,61.93,59.83,61.2,50.17,59c-1.09-.3-2.14-.54-3.16-.74v7.5c1.17.07,2.34.15,3.48.27l.82-1.81.3,1.94c1.82.21,3.6.49,5.35.86.39-.63.8-1.27,1.19-1.92.15.71.28,1.42.43,2.13A14,14,0,0,0,63,67.6c.28-.73.56-1.46.81-2.18.57.67,1.1,1.32,1.64,2a9.1,9.1,0,0,0,4-.3c.24-.78.5-1.56.76-2.33l1.23,1.64A11,11,0,0,0,76,64.91c0-.54,0-1.08.09-1.62l1.76,1.23c.32-.08.64-.19,1-.3l.19-.07C79.22,64.06,79.47,63.94,79.71,63.83Z" style="fill:#f4f4f4"/><path d="M35.67,42.54c.71-.59,1.29-1.3,2-1.86.13-.1.28-.19.42-.28a6.51,6.51,0,0,1-.13-.77c-2.87,1.33-5,5.08-9.19,5.15-2.87,0-5.22-1.88-6.71-4.21-1-1.61-1.4-3.21-3.92-2.15-.45.32-.49.77-.06,1.4C21.83,37.77,24.63,51.59,35.67,42.54Z" style="fill:#fff"/><path d="M38.55,40.12l.17-.09a5.89,5.89,0,0,1,.58-.24h0a2.2,2.2,0,0,1,.38-.61,4.88,4.88,0,0,0-1.73.46,6.51,6.51,0,0,0,.13.77C38.23,40.3,38.39,40.2,38.55,40.12Z" style="fill:#fff"/><path d="M40.34,39.17a5,5,0,0,0-.67,0,2.2,2.2,0,0,0-.38.61h0a7.21,7.21,0,0,1,1.17-.34Z" style="fill:#fff"/><path d="M38.55,40.12l.17-.09Z" style="fill:#fff"/><path d="M44.31,44.24a.85.85,0,1,1-1.1-1.3l.3-.26-.65-.32a1.57,1.57,0,1,0,2.35,1.36,1.5,1.5,0,0,0,0-.22l-.06,0C44.87,43.73,44.6,44,44.31,44.24Z" style="fill:#0d6799"/><path d="M44,42.19a2.2,2.2,0,0,0-.36,0,1.6,1.6,0,0,0-.78.21l.65.32C43.68,42.52,43.84,42.36,44,42.19Z" style="fill:#0d6799"/><path d="M45.13,43.47l.06,0a.28.28,0,0,0,0-.09Z" style="fill:#741309"/><path d="M49.91,46.63a.85.85,0,0,1-1.16-1.25l.09-.1L48.18,45a1.58,1.58,0,0,0-.6,1.23,1.55,1.55,0,0,0,1.56,1.55,1.57,1.57,0,0,0,1.57-1.54L50.42,46A4.25,4.25,0,0,1,49.91,46.63Z" style="fill:#0d5e82"/><path d="M50.63,45.72l-.21.32.29.15h0A1.44,1.44,0,0,0,50.63,45.72Z" style="fill:#0d5e82"/><path d="M49.31,44.62l-.17,0a1.52,1.52,0,0,0-1,.35l.66.33A3.26,3.26,0,0,0,49.31,44.62Z" style="fill:#0d5e82"/><path d="M55.28,49.17a.84.84,0,0,1-1.17.28.85.85,0,0,1-.28-1.18,4.78,4.78,0,0,0,.23-.45l-.54-.26A1.53,1.53,0,0,0,53,48.72a1.56,1.56,0,0,0,3.12.1l-.52-.25A4.87,4.87,0,0,1,55.28,49.17Z" style="fill:#0d5e82"/><path d="M55.86,47.85q-.12.36-.27.72l.52.25s0-.07,0-.1A1.62,1.62,0,0,0,55.86,47.85Z" style="fill:#0d5e82"/><path d="M54.28,47.2a1.5,1.5,0,0,0-.76.36l.54.26A4.57,4.57,0,0,0,54.28,47.2Z" style="fill:#0d5e82"/><path d="M60.13,51.13a.86.86,0,0,1-1.1.54.88.88,0,0,1-.52-1.1c.07-.18.1-.34.15-.51l-.36-.18-.13-.06a1.49,1.49,0,0,0-.41,1,1.58,1.58,0,0,0,1.57,1.58A1.56,1.56,0,0,0,60.87,51l-.62-.23Z" style="fill:#0d5e82"/><path d="M60.49,49.83a9,9,0,0,1-.24.92l.62.23s0-.08,0-.13A1.54,1.54,0,0,0,60.49,49.83Z" style="fill:#0d5e82"/><path d="M58.66,50.06a6.59,6.59,0,0,0,.17-.67,1.49,1.49,0,0,0-.66.43l.13.06Z" style="fill:#0d5e82"/><path d="M63.86,54.63A1.57,1.57,0,0,0,65,54.16l-1.27.45Z" style="fill:#0d5e82"/><path d="M65.1,52.11a9.07,9.07,0,0,1-.42,1.2.87.87,0,0,1-1.15.43.85.85,0,0,1-.43-1.12,6.2,6.2,0,0,0,.35-1l-.14,0a1.54,1.54,0,0,0-1,1.45,1.57,1.57,0,0,0,1.4,1.56L65,54.16a1.6,1.6,0,0,0,.46-1.11A1.53,1.53,0,0,0,65.1,52.11Z" style="fill:#0d5e82"/><path d="M63.46,51.56l-.15,0,.14,0A.15.15,0,0,1,63.46,51.56Z" style="fill:#0d5e82"/><path d="M60,45.21a.84.84,0,0,0-1.16-.3.82.82,0,0,0-.43.82c.68.34,1.38.67,2.1,1A5.15,5.15,0,0,0,60,45.21Z" style="fill:#f4f4f4"/><path d="M56,43.38a.86.86,0,0,0-1.69.06c.61.37,1.22.74,1.85,1.09A9.65,9.65,0,0,0,56,43.38Z" style="fill:#f4f4f4"/><path d="M52.13,41.07a.82.82,0,0,0-.73-1,.81.81,0,0,0-.93.69c.5.37,1,.74,1.52,1.1C52.09,41.41,52.13,41.07,52.13,41.07Z" style="fill:#f4f4f4"/><path d="M48,38.8a8.87,8.87,0,0,0,.26-.88.84.84,0,0,0-.63-1A.8.8,0,0,0,47,37v1Z" style="fill:#f4f4f4"/><path d="M47,37a.84.84,0,0,0-.46.57h0L47,38Z" style="fill:#fff"/><path d="M65.11,48A.85.85,0,0,0,64,47.38a.84.84,0,0,0-.52.49c.56.2,1.13.38,1.71.56C65.16,48.12,65.11,48,65.11,48Z" style="fill:#f4f4f4"/><path d="M58.53,46.07A4.19,4.19,0,0,1,59,47.93l1.69.72a7.62,7.62,0,0,0-.12-1.94c-.72-.31-1.42-.64-2.1-1A.83.83,0,0,0,58.53,46.07Z" style="fill:#f4f4f4"/><path d="M47,40.91A14.22,14.22,0,0,0,48,38.8L47,38Z" style="fill:#f4f4f4"/><path d="M49.78,43.59l1.52.77A16.29,16.29,0,0,0,52,41.91c-.52-.36-1-.73-1.52-1.1l0,0A16,16,0,0,1,49.78,43.59Z" style="fill:#f4f4f4"/><path d="M46.47,41.8c.2-.31.38-.6.54-.89V38l-.46-.41A11.25,11.25,0,0,1,45,41Z" style="fill:#fff"/><path d="M54.46,45.91l1.64.75a10.4,10.4,0,0,0,0-2.13c-.63-.35-1.24-.72-1.85-1.09a.88.88,0,0,0,0,.28A9.71,9.71,0,0,1,54.46,45.91Z" style="fill:#f4f4f4"/><path d="M63.47,48.46a5.44,5.44,0,0,1,.19,1.37,3.12,3.12,0,0,0,1.71.14,8,8,0,0,0-.15-1.54c-.58-.18-1.15-.36-1.71-.56A.91.91,0,0,0,63.47,48.46Z" style="fill:#f4f4f4"/><path d="M65.1,52.11l.12-.53a5.05,5.05,0,0,1-.68.08A1.64,1.64,0,0,1,65.1,52.11Z" style="fill:#f4f4f4"/><path d="M59.33,49.3a1.53,1.53,0,0,1,1.16.53,7.55,7.55,0,0,0,.16-1.18L59,47.93a6.06,6.06,0,0,1-.13,1.46A1.7,1.7,0,0,1,59.33,49.3Z" style="fill:#f4f4f4"/><path d="M54.55,47.17a1.58,1.58,0,0,1,1.31.68,8.09,8.09,0,0,0,.24-1.19l-1.64-.75a6.46,6.46,0,0,1-.18,1.29A1.12,1.12,0,0,1,54.55,47.17Z" style="fill:#f4f4f4"/><path d="M63.86,51.5a1.58,1.58,0,0,1,.68.16,5.05,5.05,0,0,0,.68-.08A8.69,8.69,0,0,0,65.37,50a3.12,3.12,0,0,1-1.71-.14,6.71,6.71,0,0,1-.2,1.73A1.34,1.34,0,0,1,63.86,51.5Z" style="fill:#f4f4f4"/><path d="M45.18,43.41a12.29,12.29,0,0,0,1.29-1.61L45,41a10.77,10.77,0,0,1-1,1.23A1.58,1.58,0,0,1,45.18,43.41Z" style="fill:#fff"/><path d="M50.63,45.72a9,9,0,0,0,.67-1.36l-1.52-.77a6.46,6.46,0,0,1-.47,1A1.56,1.56,0,0,1,50.63,45.72Z" style="fill:#f4f4f4"/><path d="M43.21,42.94a.85.85,0,1,0,1.1,1.3c.29-.25.56-.51.82-.77l-1.62-.79Z" style="fill:#fff"/><path d="M43.51,42.68l1.62.79,0-.06A1.58,1.58,0,0,0,44,42.19C43.84,42.36,43.68,42.52,43.51,42.68Z" style="fill:#fff"/><path d="M48.75,45.38a.85.85,0,0,0,1.16,1.25,4.25,4.25,0,0,0,.51-.59l-1.58-.76Z" style="fill:#f4f4f4"/><path d="M50.42,46l.21-.32a1.56,1.56,0,0,0-1.32-1.1,3.26,3.26,0,0,1-.47.66Z" style="fill:#f4f4f4"/><path d="M53.83,48.27a.85.85,0,0,0,.28,1.18.84.84,0,0,0,1.17-.28,4.87,4.87,0,0,0,.31-.6l-1.53-.75A4.78,4.78,0,0,1,53.83,48.27Z" style="fill:#f4f4f4"/><path d="M55.59,48.57q.15-.36.27-.72a1.58,1.58,0,0,0-1.31-.68,1.12,1.12,0,0,0-.27,0,4.57,4.57,0,0,1-.22.62Z" style="fill:#f4f4f4"/><path d="M58.51,50.57a.88.88,0,0,0,.52,1.1.86.86,0,0,0,1.1-.54l.12-.38c-.57-.23-1.11-.47-1.59-.69C58.61,50.23,58.58,50.39,58.51,50.57Z" style="fill:#f4f4f4"/><path d="M60.25,50.75a9,9,0,0,0,.24-.92,1.53,1.53,0,0,0-1.16-.53,1.7,1.7,0,0,0-.5.09,6.59,6.59,0,0,1-.17.67C59.14,50.28,59.68,50.52,60.25,50.75Z" style="fill:#f4f4f4"/><path d="M63.45,51.63a6.2,6.2,0,0,1-.35,1,.85.85,0,0,0,.43,1.12.87.87,0,0,0,1.15-.43,9.07,9.07,0,0,0,.42-1.2,1.64,1.64,0,0,0-.56-.45A6.65,6.65,0,0,1,63.45,51.63Z" style="fill:#f4f4f4"/><path d="M64.54,51.66a1.58,1.58,0,0,0-.68-.16,1.34,1.34,0,0,0-.4.06.15.15,0,0,0,0,.07A6.65,6.65,0,0,0,64.54,51.66Z" style="fill:#f4f4f4"/></svg>