<svg xmlns="http://www.w3.org/2000/svg" viewBox="0 0 100 100"><title>run_forrest_run</title><circle cx="50" cy="50" r="50" style="fill:#74d18e"/><path d="M15.06,56.6c-.07-.55-.12-1.09-.17-1.62C14.94,55.51,15,56.05,15.06,56.6Z" style="fill:#1b7ec1"/><path d="M14.85,54.55c0,.14,0,.29,0,.43,0-.15,0-.28,0-.42Z" style="fill:#0d6799"/><polygon points="40.6 36.34 40.6 36.34 40.6 36.34 40.6 36.34" style="fill:none"/><path d="M40.77,35.89l-.41-.12Z" style="fill:none"/><path d="M37.91,37.12c-.16.08-.32.18-.48.28s-.29.18-.42.28c.13-.1.28-.17.42-.26S37.75,37.2,37.91,37.12Z" style="fill:none"/><path d="M41.51,36.28a6,6,0,0,0-.74-.39A6,6,0,0,1,41.51,36.28Z" style="fill:none"/><path d="M38.66,36.79a5.89,5.89,0,0,0-.58.24,6,6,0,0,1,.59-.23Z" style="fill:none"/><path d="M39.54,36.54l.15,0Z" style="fill:none"/><path d="M53.82,42.91a9.71,9.71,0,0,0-.15-2.19.88.88,0,0,1,0-.28q-1.19-.73-2.31-1.53a15.34,15.34,0,0,1-.7,2.45C51.7,41.89,52.76,42.41,53.82,42.91Z" style="fill:#f4f4f4"/><path d="M55.46,43.66l1.26.56c.54.22,1.07.42,1.59.61a4.09,4.09,0,0,0-.42-1.76.83.83,0,0,1-.1-.34q-1.17-.57-2.28-1.2A10.4,10.4,0,0,1,55.46,43.66Z" style="fill:#f4f4f4"/><path d="M65.48,45.72h0l-.92-.29c0,.15.06.34.09.54A3,3,0,0,0,65.48,45.72Z" style="fill:#f4f4f4"/><path d="M62.94,46a5.36,5.36,0,0,0-.11-.55.91.91,0,0,1,0-.59c-1-.36-2-.75-3-1.16A7.54,7.54,0,0,1,60,45.38,15.36,15.36,0,0,0,62.94,46Z" style="fill:#f4f4f4"/><path d="M62.92,46.8l.1,0h0Z" style="fill:#fff"/><path d="M46.37,39.1c.91.51,1.84,1,2.77,1.49a17.21,17.21,0,0,0,.67-2.74l0,0q-1.29-1-2.52-2a14.22,14.22,0,0,1-.94,2.11Z" style="fill:#fff"/><path d="M40.36,35.77l.41.12h0a6,6,0,0,1,.74.39c.94.57,1.88,1.13,2.83,1.68a11.25,11.25,0,0,0,1.57-3.39c-1.81-1.63-3.53-3.36-5.17-5.16-1.41-.56-3.8,3.66-3.44,7.22.55-.25.57-.35,1.46-.72A2.3,2.3,0,0,1,40.36,35.77Z" style="fill:#fff"/><path d="M46.37,37.91c-.16.29-.34.58-.54.89l.54.3Z" style="fill:#fff"/><path d="M65.5,45.73Z" style="fill:#1b7ec1"/><path d="M49.77,43a3.62,3.62,0,0,1-.5.59.86.86,0,0,1-1.21,0,.85.85,0,0,1,0-1.21l.09-.1L47.53,42a1.6,1.6,0,0,0-.59,1.23,1.56,1.56,0,0,0,3.06.43v-.46Z" style="fill:#1b7ec1"/><path d="M50,42.77v.84a1.54,1.54,0,0,0,.07-.42h0A1.41,1.41,0,0,0,50,42.77Z" style="fill:#186e93"/><path d="M49.77,43l.23.11v-.38a.09.09,0,0,0,0-.05A3.62,3.62,0,0,1,49.77,43Z" style="fill:#1b7ec1"/><path d="M47.53,42l.67.33a3.26,3.26,0,0,0,.47-.66l-.17,0A1.57,1.57,0,0,0,47.53,42Z" style="fill:#1b7ec1"/><path d="M54.64,46.17a.85.85,0,1,1-1.45-.9,4.78,4.78,0,0,0,.23-.45l-.54-.26a1.53,1.53,0,0,0-.53,1.16,1.56,1.56,0,0,0,3.12.1L55,45.57A4.87,4.87,0,0,1,54.64,46.17Z" style="fill:#186e93"/><path d="M55.47,45.82s0-.07,0-.1a1.54,1.54,0,0,0-.27-.87,6.93,6.93,0,0,1-.26.72Z" style="fill:#186e93"/><path d="M53.63,44.2a1.59,1.59,0,0,0-.75.36l.54.26A3.48,3.48,0,0,0,53.63,44.2Z" style="fill:#186e93"/><path d="M59.49,48.13a.86.86,0,0,1-1.1.54.88.88,0,0,1-.52-1.1c.07-.18.1-.34.15-.51l-.36-.18-.14-.06a1.52,1.52,0,0,0-.4,1,1.56,1.56,0,0,0,3.11.13l-.62-.23Z" style="fill:#186e93"/><path d="M60.23,48s0-.08,0-.13a1.54,1.54,0,0,0-.39-1,9,9,0,0,1-.24.92Z" style="fill:#186e93"/><path d="M58,47.06a6.59,6.59,0,0,0,.17-.67,1.58,1.58,0,0,0-.67.43l.14.06Z" style="fill:#186e93"/><path d="M63.22,51.63a1.57,1.57,0,0,0,1.11-.47l-1.27.45Z" style="fill:#186e93"/><path d="M62.89,50.74a.85.85,0,0,1-.43-1.12,5.29,5.29,0,0,0,.34-1l-.13,0a1.54,1.54,0,0,0-1,1.45,1.57,1.57,0,0,0,1.4,1.56l1.27-.45a1.6,1.6,0,0,0,.46-1.11,1.53,1.53,0,0,0-.33-.94,7.91,7.91,0,0,1-.43,1.2A.86.86,0,0,1,62.89,50.74Z" style="fill:#186e93"/><path d="M62.82,48.56l-.15,0,.13,0A.64.64,0,0,1,62.82,48.56Z" style="fill:#0d5e82"/><path d="M50.63,41.41l0,0a15.34,15.34,0,0,0,.7-2.45c.1-.5.14-.84.14-.84A.84.84,0,0,0,50,37.43v3.65Z" style="fill:#c4c4c4"/><path d="M50,41.66v1a7.06,7.06,0,0,0,.43-.82h0Z" style="fill:#c4c4c4"/><path d="M48.91,41.1c-.08.17-.15.36-.24.52a3.26,3.26,0,0,1-.47.66l-.09.1a.85.85,0,0,0,0,1.21.86.86,0,0,0,1.21,0,5.77,5.77,0,0,0,.72-.91V41.66Z" style="fill:#d1d3d4"/><path d="M49.14,40.59l0,0,.88.46V37.43a.83.83,0,0,0-.17.38l0,0A17.21,17.21,0,0,1,49.14,40.59Z" style="fill:#d1d3d4"/><path d="M53.63,44.2a3.48,3.48,0,0,1-.21.62,4.78,4.78,0,0,1-.23.45.85.85,0,1,0,1.45.9,4.87,4.87,0,0,0,.31-.6,6.93,6.93,0,0,0,.26-.72c.07-.22.12-.44.17-.67l-1.61-.7A4.57,4.57,0,0,1,53.63,44.2Z" style="fill:#c4c4c4"/><path d="M53.82,42.91V43c.55.25,1.09.5,1.64.73v0a10.4,10.4,0,0,0,0-2.13,9.65,9.65,0,0,0-.16-1.15.86.86,0,0,0-1-.67.85.85,0,0,0-.68.73.88.88,0,0,0,0,.28A9.71,9.71,0,0,1,53.82,42.91Z" style="fill:#c4c4c4"/><path d="M58.19,46.39a6.59,6.59,0,0,1-.17.67c-.05.17-.08.33-.15.51a.88.88,0,0,0,.52,1.1.86.86,0,0,0,1.1-.54l.12-.38a9,9,0,0,0,.24-.92c.06-.31.09-.59.12-.88-.52-.17-1.07-.37-1.66-.59A8.16,8.16,0,0,1,58.19,46.39Z" style="fill:#c4c4c4"/><path d="M58.31,44.83c.59.21,1.15.39,1.7.55a7.54,7.54,0,0,0-.13-1.67,5.36,5.36,0,0,0-.5-1.5.84.84,0,0,0-1.16-.3.81.81,0,0,0-.43.82.83.83,0,0,0,.1.34A4.09,4.09,0,0,1,58.31,44.83Z" style="fill:#c4c4c4"/><path d="M63,46.82h0a6.71,6.71,0,0,1-.2,1.73.64.64,0,0,0,0,.07,5.29,5.29,0,0,1-.34,1,.85.85,0,0,0,.43,1.12A.86.86,0,0,0,64,50.31a7.91,7.91,0,0,0,.43-1.2l.12-.53A8.69,8.69,0,0,0,64.73,47,4.12,4.12,0,0,1,63,46.82Z" style="fill:#c4c4c4"/><path d="M62.83,45.46a5.36,5.36,0,0,1,.11.55,5.78,5.78,0,0,0,1.73,0c0-.2-.06-.39-.09-.54-.06-.31-.11-.48-.11-.48a.85.85,0,0,0-1.08-.57.82.82,0,0,0-.52.49A.91.91,0,0,0,62.83,45.46Z" style="fill:#c4c4c4"/><path d="M43.67,41.24a.85.85,0,1,1-1.1-1.3l.3-.26-.65-.32a1.57,1.57,0,1,0,2.35,1.36,1.5,1.5,0,0,0,0-.22l-.06,0C44.23,40.73,44,41,43.67,41.24Z" style="fill:#1b7ec1"/><path d="M43.35,39.19a2,2,0,0,0-.35,0,1.6,1.6,0,0,0-.78.21l.65.32C43,39.52,43.2,39.36,43.35,39.19Z" style="fill:#1b7ec1"/><path d="M44.55,40.5a.28.28,0,0,0,0-.09l0,.06Z" style="fill:#741309"/><path d="M48.5,44.73a1.55,1.55,0,0,1-1.56-1.55A1.6,1.6,0,0,1,47.53,42a1.57,1.57,0,0,1,1-.35l.17,0c.09-.16.16-.35.24-.52h0c-1.09-.57-2.23-1.19-3.41-1.86a11.44,11.44,0,0,1-1,1.17.28.28,0,0,1,0,.09,1.5,1.5,0,0,1,0,.22,1.57,1.57,0,1,1-2.35-1.36,1.6,1.6,0,0,1,.78-.21,2,2,0,0,1,.35,0A9.38,9.38,0,0,0,44,38.4c-1.11-.65-2.24-1.32-3.42-2.06h0a9.1,9.1,0,0,0-.91.16l-.15,0a6.25,6.25,0,0,0-.87.26,6,6,0,0,0-.59.23l-.17.09c-.16.08-.32.2-.48.3s-.29.16-.42.26c-.69.56-1.27,1.27-2,1.86-5.22,4.27-8.6,3.44-11.1,1.59-8.19,0-8,3.82-8.32,6.75a40.92,40.92,0,0,0,13.5,3.84c13.32,1.55,9.43-5.67,9.43-5.67,3.49,1.32,7.55,8,.53,9.2-3.53.63-13.5-1.58-20.49-3.53a25,25,0,0,1,3.54,7.78L50,59.07V43.61A1.56,1.56,0,0,1,48.5,44.73Z" style="fill:#fff"/><path d="M15,59.54l-.13-.06Z" style="fill:#fff"/><path d="M49.12,40.62l0,0,0,0Z" style="fill:#fff"/><path d="M85.86,57.25a7.73,7.73,0,0,0-1.63-4.94,10.61,10.61,0,0,0-5.9-3.47L66.62,46a19.26,19.26,0,0,1-1.89,1,8.69,8.69,0,0,1-.15,1.61l-.12.53a1.53,1.53,0,0,1,.33.94,1.6,1.6,0,0,1-.46,1.11,1.57,1.57,0,0,1-1.11.47l-.16,0a1.57,1.57,0,0,1-1.4-1.56,1.54,1.54,0,0,1,1-1.45l.15,0a6.71,6.71,0,0,0,.2-1.73l-.1,0h0c-.76-.17-1.75-.45-3-.85h0c0,.29-.06.57-.12.88a1.54,1.54,0,0,1,.39,1s0,.09,0,.13a1.56,1.56,0,0,1-3.11-.13,1.52,1.52,0,0,1,.4-1,1.58,1.58,0,0,1,.67-.43,8.16,8.16,0,0,0,.12-1h0c-.9-.33-1.87-.72-2.93-1.18h0c-.05.23-.1.45-.17.67a1.54,1.54,0,0,1,.27.87s0,.07,0,.1a1.56,1.56,0,0,1-3.12-.1,1.53,1.53,0,0,1,.53-1.16,1.59,1.59,0,0,1,.75-.36,4.57,4.57,0,0,0,.14-.72h0c-1.05-.48-2.16-1-3.34-1.6a7.06,7.06,0,0,1-.43.82v.07a1.41,1.41,0,0,1,.07.41h0a1.54,1.54,0,0,1-.07.42V59.07l35-.52h0A1.68,1.68,0,0,0,85.86,57.25Z" style="fill:#f4f4f4"/><path d="M20.27,37.71l-.14-.12Z" style="fill:#fff"/><path d="M19.91,37.4l-.16-.13Z" style="fill:#fff"/><path d="M20.62,38,20.53,38Z" style="fill:#fff"/><path d="M17.9,36.65l.23,0Z" style="fill:#fff"/><path d="M22.93,40.31h0Z" style="fill:#fff"/><path d="M23.42,40.74l0,0Z" style="fill:#fff"/><path d="M18.49,36.64l-.21,0Z" style="fill:#fff"/><path d="M18.84,36.74a1.39,1.39,0,0,0-.19-.06A1.39,1.39,0,0,1,18.84,36.74Z" style="fill:#fff"/><path d="M19.55,37.13,19.38,37Z" style="fill:#fff"/><path d="M19.2,36.9,19,36.81Z" style="fill:#fff"/><path d="M14.71,59.42l-.09-.05Z" style="fill:#fff"/><path d="M56.72,44.22l-1.26-.56,1.26.56Z" style="fill:#fff"/><path d="M14.52,59.29l0,0Z" style="fill:#fff"/><path d="M50,42.77v-.05A.09.09,0,0,1,50,42.77Z" style="fill:#fff"/><path d="M55.46,43.66v0h0Z" style="fill:#fff"/><path d="M50.65,41.36l0,0h0Z" style="fill:#fff"/><path d="M17.42,36.82a1.84,1.84,0,0,1,.36-.15A1.84,1.84,0,0,0,17.42,36.82Z" style="fill:#fff"/><path d="M45.83,38.8c.2-.31.38-.6.54-.89a14.22,14.22,0,0,0,.94-2.11,8.87,8.87,0,0,0,.26-.88.84.84,0,0,0-.63-1,.8.8,0,0,0-.57.08.81.81,0,0,0-.46.57h0A11.25,11.25,0,0,1,44.34,38Z" style="fill:#d1d3d4"/><path d="M43.35,39.19c-.15.17-.31.33-.48.49l-.3.26a.85.85,0,1,0,1.1,1.3c.29-.25.56-.51.82-.77l0-.06A1.58,1.58,0,0,0,43.35,39.19Z" style="fill:#d1d3d4"/><path d="M43.35,39.19a1.58,1.58,0,0,1,1.19,1.22,11.44,11.44,0,0,0,1-1.17L44,38.4A9.38,9.38,0,0,1,43.35,39.19Z" style="fill:#d1d3d4"/><path d="M39.73,61.71h0Z" style="fill:#fff"/><path d="M81.63,59.81l-.06,0Z" style="fill:#fff"/><path d="M29.19,61.23h0Z" style="fill:#fff"/><path d="M82.33,59.62h0Z" style="fill:#fff"/><path d="M15.53,59.71h0Z" style="fill:#fff"/><path d="M54.26,61.89h0Z" style="fill:#fff"/><path d="M52.81,61.89h0Z" style="fill:#fff"/><path d="M51.31,61.89h0Z" style="fill:#fff"/><path d="M16,59.82h0Z" style="fill:#fff"/><path d="M38.28,61.66h0Z" style="fill:#fff"/><path d="M41.21,61.75h0Z" style="fill:#fff"/><path d="M30.47,61.31h0Z" style="fill:#fff"/><path d="M42.66,61.79h0Z" style="fill:#fff"/><path d="M49.78,61.89h0Z" style="fill:#fff"/><path d="M31.72,61.38h0Z" style="fill:#fff"/><path d="M20.74,60.55l-.09,0Z" style="fill:#fff"/><path d="M16.47,59.93h0Z" style="fill:#fff"/><path d="M65.44,61.61h0Z" style="fill:#fff"/><path d="M64.12,61.67h0Z" style="fill:#fff"/><path d="M80.84,60h0Z" style="fill:#fff"/><path d="M73,61.11h0Z" style="fill:#fff"/><path d="M74.11,61h0Z" style="fill:#fff"/><path d="M75.18,60.88h0Z" style="fill:#fff"/><path d="M22.61,60.74h0Z" style="fill:#fff"/><path d="M27.94,61.15h0Z" style="fill:#fff"/><path d="M62.73,61.72h0Z" style="fill:#fff"/><path d="M21.66,60.64h0Z" style="fill:#fff"/><path d="M51.11,61.89h3.15c2.85,0,5.67-.08,8.38-.17h.09l1.29,0h.1l1.28-.06h0c2.65-.12,5.17-.28,7.47-.5h0L74,61h.07l1.06-.12h0A54.78,54.78,0,0,0,80.81,60h0l.73-.16.06,0,.67-.18h0A9.64,9.64,0,0,0,85,58.55L50,59.07v2.82Z" style="fill:#f4f4f4"/><path d="M22.43,60.72h.18c1.6.15,3.38.29,5.31.41h0l1.07.07h.18l1,.07h.23l1.07.06h.18c2.09.11,4.28.2,6.55.28h0l1.3,0h.15l1.25,0h.23l1.23,0h.22c2.34.05,4.71.08,7.09.1H50V59.07l-27.88.43C22.23,59.9,22.34,60.3,22.43,60.72Z" style="fill:#fff"/><path d="M16.86,60c1,.18,2.28.36,3.79.52l.09,0,.8.08h.12l.76.08C20.38,60.48,18.54,60.24,16.86,60Z" style="fill:#fff"/><polygon points="84.95 58.55 84.95 58.55 84.95 58.55 84.95 58.55" style="fill:#d1d3d4"/><path d="M50,63.21V61.89h-.25c-2.38,0-4.75,0-7.09-.1h-.22l-1.23,0H41l-1.25,0h-.15l-1.3,0h0c-2.27-.08-4.46-.17-6.55-.28h-.18l-1.07-.06h-.23l-1-.07H29l-1.07-.07h0c-1.93-.12-3.71-.26-5.31-.41h-.09l-.86-.09h-.12l-.8-.08-.09,0c-1.57-.17-2.89-.35-3.91-.54l-.27-.06h0l-.18,0-.25,0,0,0h0l-.18,0-.22-.06h0l-.19-.05-.17-.06h0L15.27,61C16.9,61.18,38.68,63.46,50,63.21Z" style="fill:#d1d3d4"/><path d="M82.33,59.62h0l-.67.18-.06,0-.73.16h0a54.78,54.78,0,0,1-5.63.88h0L74.11,61H74l-1.09.1h0c-2.3.22-4.82.38-7.47.5h0l-1.28.06H64l-1.29,0h-.09c-2.71.09-5.53.15-8.38.17H50v1.32l1.16,0c.84-.05,1.67-.1,2.47-.17-.72.08-1.56.14-2.47.17L50,63.24v1.54c27.4-.39,35-5,35-5v-1.2h0A9.64,9.64,0,0,1,82.33,59.62Z" style="fill:#c9c9c9"/><path d="M15.38,62.5c0,.28,0,.58.06.92,14,1.14,25.41,1.49,34.56,1.36V63.24C35.14,64,15.38,62.5,15.38,62.5Z" style="fill:#d1d3d4"/><path d="M38.27,61.66c-2.27-.08-4.46-.17-6.55-.28C33.81,61.49,36,61.58,38.27,61.66Z" style="fill:#d1d3d4"/><path d="M39.58,61.7l-1.3,0Z" style="fill:#d1d3d4"/><path d="M30.24,61.3l-1-.07Z" style="fill:#d1d3d4"/><path d="M15.33,59.66l-.17-.06Z" style="fill:#d1d3d4"/><path d="M27.92,61.15c-1.93-.12-3.71-.26-5.31-.41C24.21,60.89,26,61,27.92,61.15Z" style="fill:#d1d3d4"/><path d="M16.27,59.89l-.25,0Z" style="fill:#d1d3d4"/><path d="M29,61.22l-1.07-.07Z" style="fill:#d1d3d4"/><path d="M31.54,61.37l-1.07-.06Z" style="fill:#d1d3d4"/><path d="M15.77,59.78l-.22-.06Z" style="fill:#d1d3d4"/><path d="M21.54,60.63l-.8-.08Z" style="fill:#d1d3d4"/><path d="M75.17,60.88,74.11,61Z" style="fill:#d1d3d4"/><path d="M65.4,61.61l-1.28.06Z" style="fill:#d1d3d4"/><path d="M74,61l-1.09.1Z" style="fill:#d1d3d4"/><path d="M72.91,61.11c-2.3.22-4.82.38-7.47.5C68.09,61.49,70.61,61.33,72.91,61.11Z" style="fill:#d1d3d4"/><path d="M64,61.67l-1.29,0Z" style="fill:#d1d3d4"/><path d="M62.64,61.72c-2.71.09-5.53.15-8.38.17C57.11,61.87,59.93,61.81,62.64,61.72Z" style="fill:#d1d3d4"/><path d="M85,58.55h0a9.64,9.64,0,0,1-2.62,1.07A9.64,9.64,0,0,0,85,58.55Z" style="fill:#d1d3d4"/><path d="M82.3,59.63l-.67.18Z" style="fill:#d1d3d4"/><path d="M80.81,60a54.78,54.78,0,0,1-5.63.88A54.78,54.78,0,0,0,80.81,60Z" style="fill:#d1d3d4"/><path d="M81.57,59.83l-.73.16Z" style="fill:#d1d3d4"/><path d="M52.59,61.89h0Z" style="fill:#d1d3d4"/><path d="M49.78,61.89h0Z" style="fill:#d1d3d4"/><path d="M50,61.89h0Z" style="fill:#d1d3d4"/><path d="M41,61.74l-1.25,0Z" style="fill:#d1d3d4"/><path d="M54.1,61.89h0Z" style="fill:#d1d3d4"/><path d="M22.43,60.72h0l-.76-.08.86.09Z" style="fill:#d1d3d4"/><path d="M16.81,60h-.07c1,.19,2.34.37,3.91.54-1.51-.16-2.79-.34-3.79-.52Z" style="fill:#d1d3d4"/><path d="M49.75,61.89c-2.38,0-4.75,0-7.09-.1C45,61.84,47.37,61.87,49.75,61.89Z" style="fill:#d1d3d4"/><path d="M42.44,61.78l-1.23,0Z" style="fill:#d1d3d4"/><path d="M17.9,36.65l.23,0h.15l.21,0,.16,0a1.39,1.39,0,0,1,.19.06l.17.07.19.09.18.11.17.12.2.14.16.13.22.19.14.12.26.24.09.09c.7.68,1.45,1.5,2.3,2.27h0l.47.41,0,0c.16.13.33.27.51.39h0c2.5,1.85,5.88,2.68,11.1-1.59.71-.59,1.29-1.3,2-1.86.13-.1.28-.19.42-.28s.32-.2.48-.28l.17-.09a5.89,5.89,0,0,1,.58-.24h0a6.25,6.25,0,0,1,.87-.26l.15,0a9.1,9.1,0,0,1,.91-.16h0a9.07,9.07,0,0,1,.91-.06,6,6,0,0,0-.74-.39h0l-.41-.12a1.29,1.29,0,0,0-1.33.4,4.88,4.88,0,0,0-1.73.46c-2.87,1.33-5,5.08-9.19,5.15-2.87,0-5.22-1.88-6.71-4.21-1-1.61-1.4-3.21-3.92-2.15-.45.32-.49.77-.06,1.4a1.84,1.84,0,0,1,.36-.15Z" style="fill:#d1d3d4"/><polygon points="66.62 46 65.5 45.73 66.62 46 66.62 46" style="fill:#d1d3d4"/><path d="M58.31,44.83c-.52-.19-1.05-.39-1.59-.61l1.6.71A.31.31,0,0,0,58.31,44.83Z" style="fill:#d1d3d4"/><path d="M65.48,45.72a3,3,0,0,1-.81.25,9.43,9.43,0,0,1,.06,1A1.18,1.18,0,0,0,65.48,45.72Z" style="fill:#c4c4c4"/><path d="M62.94,46A15.36,15.36,0,0,1,60,45.38v.27l2,.83.89.32.1,0A7.37,7.37,0,0,0,62.94,46Z" style="fill:#c4c4c4"/><polygon points="40.77 35.89 40.77 35.89 40.77 35.89 40.77 35.89" style="fill:#d1d3d4"/><path d="M40.36,35.77a2.3,2.3,0,0,0-1.6.14c-.89.37-.91.47-1.46.72A4.88,4.88,0,0,1,39,36.17,1.29,1.29,0,0,1,40.36,35.77Z" style="fill:#d1d3d4"/><path d="M50,41.66v-.58l-.88-.46c-.06.17-.14.32-.21.48Z" style="fill:#d1d3d4"/><path d="M50,41.08v.58l.43.22h0c.07-.16.14-.31.2-.47Z" style="fill:#c4c4c4"/><path d="M53.82,43v-.05c0,.18,0,.37,0,.57l1.61.7c0-.16.06-.32.08-.49C54.91,43.46,54.37,43.21,53.82,43Z" style="fill:#c4c4c4"/><path d="M60,45.38c-.55-.16-1.11-.34-1.7-.55a.31.31,0,0,1,0,.1,3.12,3.12,0,0,1,0,.43c.59.22,1.14.42,1.66.59,0-.1,0-.21,0-.3Z" style="fill:#c4c4c4"/><path d="M62.94,46a7.37,7.37,0,0,1,.08.81,4.12,4.12,0,0,0,1.71.15,9.43,9.43,0,0,0-.06-1A5.78,5.78,0,0,1,62.94,46Z" style="fill:#c4c4c4"/><path d="M44.34,38c-1-.55-1.89-1.11-2.83-1.68a9.07,9.07,0,0,0-.91.06,9.07,9.07,0,0,1,.91-.06,9.07,9.07,0,0,0-.91.06c1.18.74,2.31,1.41,3.42,2.06Z" style="fill:#d1d3d4"/><path d="M48.91,41.1h0c.07-.16.15-.31.21-.48h0l0,0c-.93-.49-1.86-1-2.77-1.49l-.54-.3c-.1.15-.22.3-.33.44C46.68,39.91,47.82,40.53,48.91,41.1Z" style="fill:#d1d3d4"/><path d="M38.67,36.8a6.25,6.25,0,0,1,.87-.26A6.25,6.25,0,0,0,38.67,36.8Z" style="fill:#d1d3d4"/><path d="M39.69,36.5a9.1,9.1,0,0,1,.91-.16A9.1,9.1,0,0,0,39.69,36.5Z" style="fill:#d1d3d4"/><path d="M65.48,45.72A1.18,1.18,0,0,1,64.73,47a19.26,19.26,0,0,0,1.89-1l-1.12-.27h0Z" style="fill:#c4c4c4"/><path d="M50.65,41.36l0,0h0c-.06.16-.13.31-.2.47,1.18.59,2.29,1.12,3.34,1.6h0c0-.2,0-.39,0-.57C52.76,42.41,51.7,41.89,50.65,41.36Z" style="fill:#c4c4c4"/><path d="M60,45.65c0,.09,0,.2,0,.3h0c1.2.4,2.19.68,3,.85h0L62,46.48Z" style="fill:#c4c4c4"/><path d="M56.72,44.22h0l-1.26-.56v0h0c0,.17-.05.33-.08.49h0c1.06.46,2,.85,2.93,1.18h0a3.12,3.12,0,0,0,0-.43Z" style="fill:#c4c4c4"/><path d="M45.5,39.24c.11-.14.23-.29.33-.44L44.34,38,44,38.4Z" style="fill:#d1d3d4"/><path d="M15.16,61l.22,1.5h0c-.05-.62-.09-1.11-.11-1.49Z" style="fill:#1b7ec1"/><path d="M50,63.24v0c-11.32.25-33.1-2-34.73-2.2,0,.38.06.87.11,1.49C15.38,62.5,35.14,64,50,63.24Z" style="fill:#1b7ec1"/><path d="M51.16,63.17l-1.16,0v0Z" style="fill:#1b7ec1"/><path d="M51.16,63.17c.91,0,1.75-.09,2.47-.17C52.83,63.07,52,63.12,51.16,63.17Z" style="fill:#1b7ec1"/><polygon points="14.33 47.2 14.33 47.21 14.33 47.21 14.33 47.2" style="fill:#f90036"/><path d="M39.07,55.25c7-1.25,3-7.88-.53-9.2,0,0,3.89,7.22-9.43,5.67a40.92,40.92,0,0,1-13.5-3.84c0,.12,0,.23,0,.34a21.51,21.51,0,0,1,3,3.5C25.57,53.67,35.54,55.88,39.07,55.25Z" style="fill:#f90036"/><path d="M23.93,41.13c-.18-.12-.35-.26-.51-.39l0,0-.47-.41h0c-.85-.77-1.6-1.59-2.3-2.27L20.53,38l-.26-.24-.14-.12-.22-.19-.16-.13-.2-.14L19.38,37l-.18-.11L19,36.81l-.17-.07a1.39,1.39,0,0,0-.19-.06l-.16,0-.21,0h-.15l-.23,0-.12,0a1.84,1.84,0,0,0-.36.15A30.86,30.86,0,0,0,14.33,47.2c.4.23.83.45,1.28.68C15.94,45,15.74,41.13,23.93,41.13Z" style="fill:#f90036"/><path d="M14.33,47.21c-.06.58-.11,1.16-.14,1.76,0-.07,0-.13,0-.19C14.23,48.25,14.27,47.72,14.33,47.21Z" style="fill:#f90036"/><path d="M23.42,40.74c.16.13.33.27.51.39h0C23.75,41,23.58,40.87,23.42,40.74Z" style="fill:#f90036"/><path d="M20.62,38c.7.68,1.45,1.5,2.3,2.27C22.07,39.54,21.32,38.72,20.62,38Z" style="fill:#f90036"/><path d="M19.75,37.27l-.2-.14Z" style="fill:#f90036"/><path d="M20.13,37.59l-.22-.19Z" style="fill:#f90036"/><path d="M23.4,40.72l-.47-.41Z" style="fill:#f90036"/><path d="M19.38,37l-.18-.11Z" style="fill:#f90036"/><path d="M18.13,36.61h0Z" style="fill:#f90036"/><path d="M20.53,38l-.26-.24Z" style="fill:#f90036"/><path d="M18.65,36.68l-.16,0Z" style="fill:#f90036"/><path d="M17.9,36.65l-.12,0Z" style="fill:#f90036"/><path d="M19,36.81l-.17-.07Z" style="fill:#f90036"/><path d="M14.33,47.21h0c-.06.51-.1,1-.12,1.57C14.24,48.25,14.27,47.72,14.33,47.21Z" style="fill:#f90036"/><path d="M15.57,48.22c0-.11,0-.22,0-.34-.45-.23-.88-.45-1.28-.68h0A12.19,12.19,0,0,1,15.57,48.22Z" style="fill:#f90036"/><path d="M14.16,50.82c0-.63,0-1.25,0-1.85C14.16,49.57,14.15,50.19,14.16,50.82Z" style="fill:#fff"/><path d="M15.16,59.6,15,59.54l.18.06Z" style="fill:#fff"/><path d="M14.48,59.25a.18.18,0,0,1-.06-.13A.18.18,0,0,0,14.48,59.25Z" style="fill:#fff"/><path d="M14.85,59.48l-.14-.06Z" style="fill:#fff"/><path d="M14.62,59.37l-.1-.08Z" style="fill:#fff"/><path d="M22.12,59.5a25,25,0,0,0-3.54-7.78c-1.5-.42-2.87-.83-4-1.19a2.09,2.09,0,0,1-.42.29h0s.09,5.56.28,8.3a.18.18,0,0,0,.06.13l0,0,.1.08.09.05.14.06.13.06.18.06Z" style="fill:#fff"/><path d="M16.44,59.93h0Z" style="fill:#fff"/><path d="M15.5,59.71h0Z" style="fill:#fff"/><polygon points="15.16 59.6 15.16 59.6 15.16 59.6 15.16 59.6" style="fill:#fff"/><path d="M15.93,59.81H16Z" style="fill:#fff"/><path d="M15.54,59.72l.39.09.06,0,.45.1h0l.38.08c1.68.23,3.52.47,5.56.71h0c-.09-.42-.2-.82-.31-1.22l-7,.1h0l.34.11Z" style="fill:#fff"/><path d="M15.77,59.78l.18,0h0Z" style="fill:#fff"/><polygon points="15.16 59.6 15.16 59.6 15.16 59.6 15.16 59.6 15.16 59.6" style="fill:#fff"/><path d="M15.33,59.66l.19.05h0Z" style="fill:#fff"/><path d="M15.53,59.71h0Z" style="fill:#fff"/><path d="M16,59.82l0,0h0Z" style="fill:#fff"/><path d="M16.47,59.93l.27.06-.26-.06Z" style="fill:#fff"/><path d="M16.27,59.89l.18,0h0Z" style="fill:#fff"/><path d="M16.86,60l-.38-.08.26.06h.12Z" style="fill:#fff"/><polygon points="22.43 60.72 22.43 60.72 22.42 60.72 22.43 60.72" style="fill:#fff"/><path d="M15.54,59.72h0l.22.06.16,0Z" style="fill:#fff"/><path d="M15.16,59.6h0l.17.06.17.05Z" style="fill:#fff"/><path d="M16,59.83h0l.25,0,.17,0Z" style="fill:#fff"/><polygon points="14.33 47.2 14.33 47.2 14.33 47.21 14.33 47.2" style="fill:#fff"/><path d="M15.57,48.22a3.47,3.47,0,0,1-1,2.31c1.13.36,2.5.77,4,1.19A21.51,21.51,0,0,0,15.57,48.22Z" style="fill:#fff"/><path d="M14.17,50.4c0-.55,0-1.09,0-1.62,0,.06,0,.12,0,.19,0,.6,0,1.22,0,1.85a2.09,2.09,0,0,0,.42-.29Z" style="fill:#fff"/><path d="M15.57,48.22a12.19,12.19,0,0,0-1.24-1h0c-.06.51-.09,1-.12,1.57s0,1.07,0,1.62l.41.13A3.47,3.47,0,0,0,15.57,48.22Z" style="fill:#fff"/></svg>