<svg xmlns="http://www.w3.org/2000/svg" viewBox="0 0 100 100"><title>tricycle</title><circle cx="50" cy="50" r="50" style="fill:#74d18e"/><path d="M71.8,52.12l-.14,0,.14.51Z" style="fill:none"/><path d="M26.89,62.88a3.2,3.2,0,0,1,.17.43h4.08A6.61,6.61,0,0,0,29.77,60Z" style="fill:none"/><path d="M23.71,61.57V57.5a6.61,6.61,0,0,0-3.31,1.37l2.88,2.87A3.2,3.2,0,0,1,23.71,61.57Z" style="fill:none"/><path d="M76,60.43h6.16a9.36,9.36,0,0,0-2-4.87L75.76,59.9A2.47,2.47,0,0,1,76,60.43Z" style="fill:none"/><path d="M26.45,57.73a7.07,7.07,0,0,0-1.13-.23v2C25.65,58.91,26,58.34,26.45,57.73Z" style="fill:none"/><path d="M74.34,58.48l4.35-4.34a9.42,9.42,0,0,0-4.88-2v6.14A3.49,3.49,0,0,1,74.34,58.48Z" style="fill:none"/><path d="M75.76,63l4.35,4.33a9.33,9.33,0,0,0,2-4.86H76A2.7,2.7,0,0,1,75.76,63Z" style="fill:none"/><path d="M71.26,64.39l-4.34,4.33a9.36,9.36,0,0,0,4.88,2V64.61A3.21,3.21,0,0,1,71.26,64.39Z" style="fill:none"/><path d="M69.62,62.44H63.47a9.25,9.25,0,0,0,2,4.86L69.84,63A3.49,3.49,0,0,1,69.62,62.44Z" style="fill:none"/><path d="M69.07,52.84a9.55,9.55,0,0,0-2.15,1.3l3.44,3.44Z" style="fill:none"/><path d="M73.81,64.61v6.14a9.43,9.43,0,0,0,4.88-2l-4.35-4.33A3.49,3.49,0,0,1,73.81,64.61Z" style="fill:none"/><path d="M69.84,59.9,65.5,55.56a9.28,9.28,0,0,0-2,4.87h6.15A3.11,3.11,0,0,1,69.84,59.9Z" style="fill:none"/><path d="M25.32,66.65v4.07a6.61,6.61,0,0,0,3.31-1.37l-2.88-2.88A2.3,2.3,0,0,1,25.32,66.65Z" style="fill:none"/><path d="M23.28,66.47,20.4,69.35a6.61,6.61,0,0,0,3.31,1.37V66.65A2.3,2.3,0,0,1,23.28,66.47Z" style="fill:none"/><path d="M26.89,65.34l2.88,2.88a6.61,6.61,0,0,0,1.37-3.31H27.06A3.2,3.2,0,0,1,26.89,65.34Z" style="fill:none"/><path d="M22,64.91H17.89a6.61,6.61,0,0,0,1.37,3.31l2.89-2.88A2.3,2.3,0,0,1,22,64.91Z" style="fill:none"/><path d="M22.15,62.88,19.26,60a6.61,6.61,0,0,0-1.37,3.31H22A2.3,2.3,0,0,1,22.15,62.88Z" style="fill:none"/><path d="M71.26,58.48a3.3,3.3,0,0,0-1.42,1.42,3.11,3.11,0,0,0-.22.53,3.33,3.33,0,0,0-.17,1,3.39,3.39,0,0,0,.17,1,3.49,3.49,0,0,0,.22.53,3.35,3.35,0,0,0,1.42,1.42,3.21,3.21,0,0,0,.54.22,3.33,3.33,0,0,0,1,.17,3.39,3.39,0,0,0,1-.17,3.49,3.49,0,0,0,.53-.22A3.3,3.3,0,0,0,75.76,63a2.7,2.7,0,0,0,.22-.53,3.11,3.11,0,0,0,.18-1,3.05,3.05,0,0,0-.18-1,2.47,2.47,0,0,0-.22-.53,3.25,3.25,0,0,0-1.42-1.42,3.49,3.49,0,0,0-.53-.22,3.39,3.39,0,0,0-1-.17,3.33,3.33,0,0,0-1,.17V52.65l-.14-.51a9.36,9.36,0,0,0-2.59.7l1.29,4.74Z" style="fill:#f2542a"/><path d="M37.7,47.59V42.78H35v6.5a34.82,34.82,0,0,0-5,4.14,12.07,12.07,0,0,1,2.16,1.43c3.69-3.62,9.35-7.28,17.78-9.11V43.05A42,42,0,0,0,37.7,47.59Z" style="fill:#f63"/><path d="M65.72,30.35a6.72,6.72,0,0,0-4.44-4.61,2.48,2.48,0,0,1,.12.73,2.57,2.57,0,0,1-.79,1.86,4,4,0,0,1,2.52,2.72l3,11a60.74,60.74,0,0,0-16.11,1v2.69a60,60,0,0,1,16.86-1l.79,2.93a14.14,14.14,0,0,1,2.59-.7Z" style="fill:#f2542a"/><path d="M61.28,25.74a2.61,2.61,0,0,0-2.51-1.9H55a2.63,2.63,0,0,0,0,5.25h3.8a2.65,2.65,0,0,0,2.63-2.62A2.48,2.48,0,0,0,61.28,25.74Z" style="fill:#eab634"/><path d="M42.18,42.78a.88.88,0,0,0,.88-.88,5.14,5.14,0,0,0-5.15-5.14H31.43a1.76,1.76,0,0,0-1.76,1.76V41a1.76,1.76,0,0,0,1.76,1.76H42.18Z" style="fill:#fecd39"/><path d="M71.8,58.26a3.33,3.33,0,0,1,1-.17,3.39,3.39,0,0,1,1,.17V52.12a8.43,8.43,0,0,0-1-.06,8.26,8.26,0,0,0-1,.06v6.14Z" style="fill:#eab634"/><path d="M75.76,59.9l4.35-4.34a9.53,9.53,0,0,0-1.42-1.42l-4.35,4.34A3.25,3.25,0,0,1,75.76,59.9Z" style="fill:#eab634"/><path d="M76,60.43a3.05,3.05,0,0,1,.18,1,3.11,3.11,0,0,1-.18,1h6.16c0-.33,0-.67,0-1s0-.67,0-1Z" style="fill:#eab634"/><path d="M74.34,64.39l4.35,4.33a9.08,9.08,0,0,0,1.42-1.42L75.76,63A3.3,3.3,0,0,1,74.34,64.39Z" style="fill:#eab634"/><path d="M72.8,64.78a3.33,3.33,0,0,1-1-.17v6.14c.33,0,.66,0,1,0s.68,0,1,0V64.61A3.39,3.39,0,0,1,72.8,64.78Z" style="fill:#eab634"/><path d="M69.84,63,65.5,67.3a8.67,8.67,0,0,0,1.42,1.42l4.34-4.33A3.35,3.35,0,0,1,69.84,63Z" style="fill:#eab634"/><path d="M69.45,61.43a3.33,3.33,0,0,1,.17-1H63.47a8.26,8.26,0,0,0-.06,1,8.43,8.43,0,0,0,.06,1h6.15A3.39,3.39,0,0,1,69.45,61.43Z" style="fill:#eab634"/><path d="M71.26,58.48l-.9-.9-3.44-3.44a9.08,9.08,0,0,0-1.42,1.42l4.34,4.34A3.3,3.3,0,0,1,71.26,58.48Z" style="fill:#eab634"/><path d="M24.52,61.43a2.69,2.69,0,0,1,.8.14V57.5a7.22,7.22,0,0,0-.8-.08,7.17,7.17,0,0,0-.81.08v4.07A2.7,2.7,0,0,1,24.52,61.43Z" style="fill:#fecd39"/><path d="M26.89,62.88,29.77,60a6.42,6.42,0,0,0-1.14-1.13l-2.88,2.87A2.72,2.72,0,0,1,26.89,62.88Z" style="fill:#fecd39"/><path d="M27.2,64.11a2.63,2.63,0,0,1-.14.8h4.08a7,7,0,0,0,.08-.8,6.77,6.77,0,0,0-.08-.8H27.06A2.63,2.63,0,0,1,27.2,64.11Z" style="fill:#fce059"/><path d="M25.75,66.47l2.88,2.88a6.42,6.42,0,0,0,1.14-1.13l-2.88-2.88A2.65,2.65,0,0,1,25.75,66.47Z" style="fill:#fecd39"/><path d="M24.52,66.79a2.7,2.7,0,0,1-.81-.14v4.07a7.17,7.17,0,0,0,.81.08,7.22,7.22,0,0,0,.8-.08V66.65A2.69,2.69,0,0,1,24.52,66.79Z" style="fill:#fecd39"/><path d="M22.15,65.34l-2.89,2.88a6.42,6.42,0,0,0,1.14,1.13l2.88-2.88A2.62,2.62,0,0,1,22.15,65.34Z" style="fill:#fecd39"/><path d="M21.83,64.11a2.63,2.63,0,0,1,.14-.8H17.89a6.77,6.77,0,0,0-.08.8,7,7,0,0,0,.08.8H22A2.63,2.63,0,0,1,21.83,64.11Z" style="fill:#fecd39"/><path d="M23.28,61.74,20.4,58.87A6.42,6.42,0,0,0,19.26,60l2.89,2.88A2.7,2.7,0,0,1,23.28,61.74Z" style="fill:#fecd39"/><path d="M72.8,46.71a14.42,14.42,0,0,0-2.56.24,14.14,14.14,0,0,0-2.59.7,14.73,14.73,0,1,0,5.15-.94Zm9.34,15.73a9.33,9.33,0,0,1-2,4.86,9.08,9.08,0,0,1-1.42,1.42,9.43,9.43,0,0,1-4.88,2c-.33,0-.67,0-1,0s-.67,0-1,0a9.36,9.36,0,0,1-4.88-2A8.67,8.67,0,0,1,65.5,67.3a9.25,9.25,0,0,1-2-4.86,8.43,8.43,0,0,1-.06-1,8.26,8.26,0,0,1,.06-1,9.28,9.28,0,0,1,2-4.87,9.08,9.08,0,0,1,1.42-1.42,9.55,9.55,0,0,1,2.15-1.3,9.36,9.36,0,0,1,2.59-.7l.14,0a8.26,8.26,0,0,1,1-.06,8.43,8.43,0,0,1,1,.06,9.42,9.42,0,0,1,4.88,2,9.53,9.53,0,0,1,1.42,1.42,9.36,9.36,0,0,1,2,4.87c0,.33,0,.66,0,1S82.17,62.11,82.14,62.44Z" style="fill:#1b4568"/><path d="M24.52,52.06a12.14,12.14,0,1,0,5.54,1.36A12.08,12.08,0,0,0,24.52,52.06Zm6.7,12a7,7,0,0,1-.08.8,6.61,6.61,0,0,1-1.37,3.31,6.42,6.42,0,0,1-1.14,1.13,6.61,6.61,0,0,1-3.31,1.37,7.22,7.22,0,0,1-.8.08,7.17,7.17,0,0,1-.81-.08,6.61,6.61,0,0,1-3.31-1.37,6.42,6.42,0,0,1-1.14-1.13,6.61,6.61,0,0,1-1.37-3.31,7,7,0,0,1-.08-.8,6.77,6.77,0,0,1,.08-.8A6.61,6.61,0,0,1,19.26,60a6.42,6.42,0,0,1,1.14-1.13,6.61,6.61,0,0,1,3.31-1.37,7.17,7.17,0,0,1,.81-.08,7.22,7.22,0,0,1,.8.08,7.07,7.07,0,0,1,1.13.23,6.68,6.68,0,0,1,2.18,1.14A6.42,6.42,0,0,1,29.77,60a6.61,6.61,0,0,1,1.37,3.31A6.77,6.77,0,0,1,31.22,64.11Z" style="fill:#205080"/><path d="M25.32,61.57a2.38,2.38,0,0,0-1.61,0,3.2,3.2,0,0,0-.43.17,2.7,2.7,0,0,0-1.13,1.14,2.3,2.3,0,0,0-.18.43,2.36,2.36,0,0,0,0,1.6,2.3,2.3,0,0,0,.18.43,2.62,2.62,0,0,0,1.13,1.13,2.3,2.3,0,0,0,.43.18,2.38,2.38,0,0,0,1.61,0,2.3,2.3,0,0,0,.43-.18,2.65,2.65,0,0,0,1.14-1.13,3.2,3.2,0,0,0,.17-.43,2.36,2.36,0,0,0,0-1.6,3.2,3.2,0,0,0-.17-.43,2.72,2.72,0,0,0-1.14-1.14l2.88-2.87a6.68,6.68,0,0,0-2.18-1.14c-.43.61-.8,1.18-1.13,1.73Z" style="fill:#fc4c4c"/></svg>